<?xml version="1.0" standalone="no"?>
<svg xmlns="http://www.w3.org/2000/svg" viewBox="0 0 82.048 36" width="82.048" height="36"><g fill="#000000" color="#000000" transform="translate(0 6) scale(0.4615385)"><svg width="49.0" height="52.0" x="0.0" y="0.0" viewBox="0 0 49 52"><path fill="currentColor" fill-rule="evenodd" d="M36.152.968h-.067a.316.316 0 0 1 .067-.09v.09zm-.516.404h-.113v-.09c.09 0 0-.09.113-.09V1.08a.316.316 0 0 1 .067-.09c.023.023.045.045.045.09 0 0 .09.023 0 .023v.044c.09 0 0 .068 0 .135-.023 0-.068.023-.113.045a.75.75 0 0 1 0 .045zm1.526.63h-.112v-.158c.045 0 .067-.022 0-.022a.37.37 0 0 0 .045-.113c.022.045.022.113.022.18.068 0 .045.045.045.112zm-1.93.224h.067V2.18h-.067v.045zm-1.707.247c0-.023-.022-.045-.045-.067.067 0 .113-.113.113-.18a.37.37 0 0 1 .112-.045c0 .045 0 .09-.023.157a.17.17 0 0 0-.09.023c0 .023 0 .045-.022.09 0 0-.023 0-.045.022zm2.83.202h-.158v-.09c.045 0 .067-.022 0-.022a.175.175 0 0 0-.045-.113v-.112c.068 0 .068-.09.203-.09.022 0 .044.023.068.045.089.022.156.044.223.067v.09c-.022 0-.044 0-.09.022 0 .023 0 .045-.022.09h-.09s-.022-.09-.022 0c-.023.023-.045.068-.068.113zm-1.82.135h-.09c0-.068-.044-.045-.112-.045v-.067c.023-.023.045-.045.045-.067l.067-.068.112-.112c.068 0 .068-.09.203-.09.022 0 .044.023.067.045v.067c.09 0-.112.224-.157.224h-.023a9.32 9.32 0 0 1-.112.113zm.988 0h-.134c.022-.045.022-.09.022-.113h.113v.113zm-1.325.292c-.067 0-.044-.067-.044-.113.067 0 .067.023.067.09l-.023.023zm1.482.314h-.157v-.27c.023-.022.045-.044.045-.067.067 0 .045-.044.045-.09h.09c0 .09.157.023.09.27h-.09c0 .045 0 .09-.023.157zm-2.56.314h-.157v-.067h.09c.023-.022.045-.044.068-.044V3.55c.067 0 .067-.044.067-.112h.112c0 .067 0 .134-.022.224h-.09c-.023 0-.045.023-.067.045v.022zm-.515.517c-.023-.023-.068-.023-.113-.023v-.112c-.067 0 0-.067 0-.112.067 0 .023-.068.157-.068a.435.435 0 0 1 .023.18c.022.023.044.045.044.067-.022 0-.067.023-.112.045v.023zM43.27 5.1c-.044-.023-.112-.023-.18-.023v-.09h.225v.09c0 .001-.022.001-.045.023zm-11.519.112c-.045-.022-.09-.022-.156-.022v-.157c.022-.023.044-.045.044-.068a.37.37 0 0 1 .112-.044c0 .067.067.044.113.067v.113c-.023.022-.045.044-.068.09 0-.001-.022-.001-.045.021zm-2.335 1.64c0-.023-.023-.045-.045-.068.045 0 .09-.09.09.023l-.045.045zm-10.711.628h-.135v-.067c0-.045-.022-.067-.044-.09.067 0 .067-.067.067-.135.09 0 .157 0 .224.023 0 .067.067.023.067.157h-.067c-.022.023-.067.045-.112.067v.045zm10.868.45h-.09c0-.045 0-.09-.023-.113 0-.023-.022-.045-.044-.067-.068 0-.045-.135-.045-.203.045-.022.067-.022.09-.022.022-.045.022-.067.022-.09.045-.023.09-.023.113-.023.068-.044.112-.09.157-.112v-.09c.067-.023.135-.023.18-.023v.337l-.067.135c-.045.022-.09.067-.158.112v.09c-.044 0-.09 0-.134.023l-.001.045zm-1.415.56c0-.044-.023-.067-.045-.09.023-.022.045-.044.045-.066a.375.375 0 0 1 .112-.045v.112c-.022 0-.067.023-.112.045v.045zM3.84 8.694h-.135v-.09c.09 0-.045-.112-.045-.157.023 0 .18-.157.18 0 .023.023.045.045.045.067-.068 0 0 .09 0 .157 0 0-.023 0-.045.023zm-.202.449H3.48v-.113c-.068 0-.045-.09-.045-.134h.09c.022-.023.044-.045.067-.045.023-.022.045-.044.067-.044.045.022.09.067.113.112 0 .067 0 .135-.023.202h-.112v.022zm24.812.629c-.067-.023-.134-.023-.224-.023 0-.067-.045-.044-.113-.044 0-.045 0-.068-.067-.068v-.09h.067V9.48c.023-.022.045-.044.045-.067.067 0 .067-.067.067-.112.068-.023.113-.045.157-.045.023.023.023.045.023.09.045 0 .067 0 .09.022 0 .068.067.045.112.068v.202c-.022 0-.044 0-.09.023 0 .022 0 .044-.022.09 0-.002-.022-.002-.045.021zm-8.039.381h-.067c0-.09-.09-.067-.157-.067-.023-.022-.045-.044-.068-.044-.022-.068-.044-.135-.067-.18h.067c.023-.045.023-.067.023-.09h.09c.023 0 .045.023.067.045 0 .067.113.044.157.067v.112c-.067 0-.045.113-.045.157zm1.527.225h-.224c.023-.09.023-.157.023-.225.067-.022.112-.044.157-.044v.044c.112 0 .044.18.044.225zm-19.244.18h-.067l-.067-.472c-.067 0-.045-.112-.045-.157a.37.37 0 0 1 .113-.045c-.023-.022-.045-.022-.068-.022.023-.045.023-.067.023-.09.045-.023.067-.023.09-.023.023-.09.023-.18.023-.27.067 0 .022-.067.157-.067v-.067c0-.067.09-.044.157-.044.022-.023.022-.045.022-.045v.09c.045 0 .09 0 .113.022l.067.068c0 .134 0 .291-.022.449H3.1c-.045-.023-.09-.023-.135-.023a.37.37 0 0 0 .045-.112.66.66 0 0 0-.225-.045v.157c-.022 0-.067 0-.112.023.023.09.045.18.067.292.023.022.045.044.045.09.067 0 .134 0 .18.022v.09c-.045 0-.113 0-.18.023v.09c-.023 0-.045 0-.09.022v.044zm24.858 0h-.134v-.068c-.068 0-.045-.202-.045-.27h.112c0 .068.113.045.158.068v.045c-.068 0 0 .09 0 .18h-.09v.045zm19.873.404c-.068 0-.045-.157-.045-.225.023-.022.045-.044.045-.067h.134c0 .045 0 .09-.023.157-.022.023-.044.045-.067.09l-.044.045zm-1.82.337h-.112a1.087 1.087 0 0 0-.067-.158c-.067 0-.045-.09-.045-.134a.37.37 0 0 1 .113-.045c0-.067.067-.067.112-.067v-.112c.023-.023.045-.045.045-.068-.045 0-.09 0-.157.023-.023 0-.045.023-.067.045.022-.045.022-.09.022-.113.023-.023.045-.045.045-.067h-.067c0-.045-.09-.113.022-.113 0-.067.023-.112-.067-.112a.175.175 0 0 0-.045-.113c.067 0 .045-.044.045-.09h.067a.17.17 0 0 1 .045.113c.112 0 .044.112.044.202h.113c.023-.044.023-.09.023-.112.112 0-.023-.157-.023-.157-.067 0-.09-.135-.113-.18h-.09v-.067c.068 0 .045-.045.045-.113a.17.17 0 0 0-.112-.044.431.431 0 0 0-.045-.18h.09v-.09h.067a.27.27 0 0 1 .113.112c.044.023.09.068.112.113.045.023.09.067.113.112l.067.27c.09 0 .045.157.045.224-.068 0-.045.113-.045.18.202 0 .224.292.157.45a.322.322 0 0 0-.157-.045c0 .022 0 .067-.023.112a2.805 2.805 0 0 1-.224.068v.09c0 .021-.023.043-.045.066zm.382 0h-.09v-.113c.068 0 .023-.067.113-.067v-.09h.067c0 .045 0 .09-.022.157-.068 0-.045.068-.068.113zm-22.432.18c0-.023 0-.045-.023-.068-.067 0-.022-.067.023-.067v.134zm.09.112h-.09v-.067c.045.022.067.044.09.067zm22.23.224h-.112c0-.067-.023-.067-.09-.067 0-.045 0-.09-.023-.113-.066 0-.044-.067-.044-.112-.09 0-.022-.067.044-.067.023-.045.023-.068.023-.09h.157c.045.022.09.067.113.112v.225c-.068 0-.046.067-.068.112zm-19.244.113h-.134v-.068c-.067 0-.045-.202-.045-.27.023-.022.045-.044.045-.066h.224v.224c-.067 0-.044.067-.044.112-.001.022-.023.045-.046.068zm-3.525.561h-.09c0-.067-.022-.113-.044-.157.044 0 .067-.023 0-.023a.37.37 0 0 0 .044-.112h.203v.067c.067 0 .044.045.044.112 0 .023-.022.045-.044.068 0-.023 0-.045-.023-.045l-.09.09zm-.247.022c-.023-.023-.067-.023-.112-.023-.023-.067-.045-.134-.068-.18h.18v.203zm.696.382h-.113c0-.067-.044-.067-.112-.067v-.314c.045-.023.067-.023.09-.023V12.375c0-.067.067-.044.134-.044v.112h.09v-.067c.09 0 .135-.023.135.067.157 0 .157.113.157.27 0 .023-.023.045-.045.067h-.067c0 .09-.202.045-.27.067v.045zm.898 0h-.067a.175.175 0 0 0-.045-.112c.067-.023.113-.045.157-.045.023.045.023.112-.044.112l-.001.045zM7.118 16.754H6.96c-.023-.022-.045-.044-.068-.044 0-.068-.022-.068-.09-.068 0-.044 0-.067-.022-.09-.067 0-.045-.134.023-.134 0-.09.157-.113.27-.09.044.023.089.045.112.09v.067c.112 0 .067.18 0 .18-.023 0-.045.023-.068.045v.044zm-1.684.023c-.023-.023-.045-.023-.067-.023v-.09c-.045-.022-.113-.022-.18-.022v-.113h.247v.248zm-.314.157c-.068 0-.045-.067-.045-.113-.134 0 .067-.044.113-.044v.112H5.12v.045zm1.684.449h-.068v-.09c.068 0 .068.022.068.09zm-1.056.068c0-.023-.022-.045-.044-.068-.068 0-.045-.09-.068-.112-.044 0-.09 0-.157.022.023-.044.045-.09.067-.112h.158c.022 0 .044.023.067.045 0 .067 0 .135-.023.225zm.876.224h-.067a2.805 2.805 0 0 0-.068-.224.491.491 0 0 0-.112-.18c-.067 0-.09-.135-.09-.203.067-.022.112-.022.157-.022v-.113h.113v-.09h.157c.022.023.022.045.022.09.068 0 .113 0 .157.023a.617.617 0 0 1 .023.202c.112 0 .224 0 .337.023v.09s.09.022 0 .022c-.023 0-.045.023-.067.045 0 .067-.068.045-.113.045-.022-.023-.045-.045-.067-.045v-.067c0-.023-.023-.045-.045-.045s-.067.023-.112.045v.224c.022.023.044.045.044.067-.067 0-.134 0-.224.023 0 .023-.023.045-.045.09zm-.516.067H6.04v-.067c.023-.023.045-.045.068-.045 0 .023.09.068 0 .068v.044zm35.5.404c-.067-.022-.134-.022-.224-.022v-.113c.113 0 .067-.202.067-.27.045-.067.09-.112.113-.156.067-.023.112-.023.158-.023 0-.045.022-.067.022 0 .09 0 .044.18.044.247-.022 0-.066.023-.112.045 0 .067-.068.044-.113.067v.09c.068 0 .045.068.045.135zm-33.412.046h-.203v-.158c.225-.112.203.045.203.158zm-.943.247c-.023-.023-.067-.023-.113-.023v-.09c.068 0 .045-.045.045-.09.045 0 .09 0 .113.023v.112c0 .022-.023.045-.045.068zm.606.201h-.09c0-.067-.045-.044-.113-.044 0-.045 0-.09-.022-.113-.113 0 0-.067 0-.067h-.18a.175.175 0 0 0-.045-.113c-.067 0-.044-.112-.044-.157-.023-.022-.067-.022-.113-.022.023-.068.045-.113.045-.157a.683.683 0 0 1 .18-.045v.09c.09 0 .067.112.067.18l.202.067c0 .067.113.044.18.067v.09c.09 0 .067.112.067.18H7.86v.044zm.36.36c-.023-.023-.068-.023-.113-.023 0-.067.022-.112-.067-.112 0-.068-.023-.135-.045-.203.045-.022.067-.022.09-.022 0-.045.022-.067.022 0 .023.022.045.044.045.067l.135.067v-.067c.067-.023.112-.045.157-.045 0 .068.134.09.044.27-.09 0-.18.023-.27.045l.001.023zm-.113.112h-.067v-.068c.045 0 .067 0 .067.068zm.674.112h.112v-.067H8.78v.067zm31.93.584h-.067v-.09c.067 0 .045-.044.045-.112.022.022.022.044.022.067.068 0 .045.045.045.112.001 0-.022 0-.045.023zm-31.885.113c-.045-.023-.09-.023-.157-.023v-.113c.044 0 .09 0 .112.023v.09c.022 0 .045 0 .045.023zm.92 1.302h.068v-.067h-.068v.067zm.45.337h-.09v-.068h.112c0 .022 0 .045-.023.068zm26.63 1.325c-.022-.023-.067-.023-.112-.023a.431.431 0 0 0-.045-.18c.045-.067.09-.112.113-.157.067 0 .023-.067.112-.067 0-.067.09-.045.158-.045.09.023.18.045.247.067a.17.17 0 0 1 .044.113c-.022.023-.044.045-.067.09-.023 0-.067 0-.113.022-.022 0-.044.023-.067.045 0-.067-.044-.045-.112-.045-.023.023-.068.045-.113.068v.09c0-.001-.022-.001-.044.022zm-.56 1.01h-.068v-.225c-.067 0-.045-.18-.045-.247.068 0 .045-.09.045-.157.023-.023.045-.045.045-.067h.067c0-.067.112-.045.18-.045v.113c.044.022.09.044.112.067a.17.17 0 0 1 .045.112c-.045.023-.09.045-.157.068l-.113.112c0 .09 0 .225-.112.225v.044zm.336.27h-.157v-.382c.023 0 .224-.18.224.044.045 0 .068 0 .09.023v.112c0 .023-.022.045-.044.09l-.068.068-.045.044zm-24.97 2.582h-.067c.023-.045.023-.09.023-.113h.09c0 .023-.023.067-.045.113zm-1.212 1.302h.067v-.09h-.067v.09zm-.382 1.212h-.27v-.112c.09-.023.18-.023.27-.023 0-.134.067.068.067.113h-.067v.022zM8.218 30.52h-.112c.022-.023.044-.023.044-.023.023-.022.045-.044.068-.044 0-.068.067-.023.067-.157.067 0 .045.044.045.112-.023.023-.045.045-.068.09.001 0-.021 0-.044.022zm33.975.741c-.023-.023-.068-.023-.113-.023 0-.044 0-.067-.023-.09 0-.022-.022-.044-.044-.067a.37.37 0 0 1 .112-.044v.112c.068 0 .068.045.068.112zm.269.202a.17.17 0 0 0-.113-.044c.023-.068.023-.113.023-.157.023-.023.045-.045.045-.068.112 0 .045.202.045.27zm.225.202c-.023-.023-.045-.023-.09-.023v-.067h.09v.09zm.74.561c-.022-.022-.044-.022-.09-.022 0-.067.09-.022.09.022zm-.56.113h-.113v-.067c-.067 0-.045-.068-.045-.113h.09c.022-.023.044-.045.067-.045v.225zm.583 0h.045v-.067h-.045v.067zm-37.118.404c-.022-.023-.067-.023-.112-.023v-.09c.067 0 .044-.044.044-.112H6.4c.022.045.044.09.044.157-.022 0-.067.023-.112.045l.001.023zm-.472.606h.023v-.09H5.86v.09zm-1.481 1.73h-.113c.023-.09.023-.158.023-.225h.09c.022 0 .044.023.067.045v.066c-.067 0-.023.068-.067.113zm40.666.83h.157v-.09h-.157v.09zm.336.471h-.067c0-.09-.023-.156-.045-.224h.068c0-.134.09.09.09.157-.001.023-.024.045-.046.067zm-1.078.27h-.134v-.09c0-.022-.023-.022-.045-.022h.225v.067l-.046.045zm.494.36c-.067 0-.09-.18-.09-.248.09.045.18.045.09.247zm.988.044h-.067c-.022-.044-.067-.067-.112-.09.022-.045.044-.09.067-.112h.09c.022.022.022.067.022.113.09 0 0 .067 0 .09zm.45.068c-.068 0-.045-.113-.045-.18h.112c0 .045 0 .134-.067.134v.046zm-.472.045h-.203c0-.067.09-.09.158-.09.022.022.045.045.045.09zm.292.134c-.045-.022-.09-.022-.158-.022a.37.37 0 0 0 .045-.113c.09 0 .023-.044-.045-.044a.316.316 0 0 0 .09-.068c.023-.044.023-.09.023-.112.022 0 .045 0 .067.023 0 .044 0 .09-.022.157-.113 0 .022.067.022.067 0 .023 0 .068-.022.112zm-1.662.113c-.067-.023-.134-.023-.202-.023 0-.067 0-.134-.023-.202h.113c.022.023.022.045.022.09.045 0 .068 0 .09.022.023.023.023.045.023.09l-.023.023zm2.986.09h-.112V37.3c.022.023.045.045.045.09.067 0 .067.045.067.113zm-2.177.022c-.023-.023-.068-.023-.112-.023v-.09h.112v.113zm.471.157c0-.023 0-.045-.023-.045l-.202-.067c0-.045 0-.09-.023-.112 0-.023-.022-.045-.044-.068h.067v.068c.112 0 .225.067.225.224zm-1.1.112h-.068a.92.92 0 0 0-.112-.202c0-.023-.023-.023-.045-.023.113 0 .18 0 .18.113.067 0 .044.045.044.112zm.987.292h-.067v-.067a.316.316 0 0 0-.067-.09h-.09v.157h-.134v-.112c.09 0 .067-.113.067-.18.067 0 .044-.045.044-.113h.113c.023.023.023.068.023.113.044 0 .067 0 .09.022.022.023.022.068.022.113.067 0 .045.045.045.112 0 0-.022.023-.046.045zm-.134.224h-.113a.175.175 0 0 0-.044-.111l.067-.068h.113c0 .045 0 .113-.023.18zm.875.113h-.067v-.09c-.067 0-.044-.067-.067-.09h.067v.067c.067 0 .067.023.067.113zm-.47.36c-.046-.023-.09-.023-.158-.023 0-.045 0-.09-.023-.113 0-.044-.022-.067-.044-.09h.157c.022.068.044.136.067.225zm.74.044c-.067 0-.045-.067-.067-.112 0-.023-.023-.045-.045-.068.045 0 .09 0 .113.023v.09s.09.022 0 .022v.045zm-1.976.045h-.067c0-.045 0-.068-.023-.09-.022-.022-.044-.022-.09-.022v-.157a.37.37 0 0 1 .113-.045c0-.045 0-.09-.023-.134h-.27c-.022-.023-.044-.045-.067-.045a.431.431 0 0 0-.044-.18c.022-.022.044-.045.044-.067.068 0 .135 0 .18.022a.4.4 0 0 1 .157.113c.023.045.023.09.023.157.067 0 .067.045.067.113.023.022.045.044.045.067.09 0 .067.09.067.157 0-.023 0-.045-.023-.045 0-.022-.022-.044-.044-.067-.022-.023-.045-.045-.068-.045v.068c-.067 0-.022.044.023.044a.168.168 0 0 1 .045.112l-.045.044zm.674 0h.067v-.044h-.067v.044zm-45.202.023H0c.023-.023.045-.023.045-.023.022-.068.022-.112.022-.157.068 0 .045.09.045.157 0 0-.022 0-.045.023zm45.606.292c-.023-.023-.067-.023-.113-.023 0-.067.024-.113-.067-.113v-.112h.067a.316.316 0 0 1 .09.067c.023.046.023.113.023.18zm-.337.27h-.067c0-.045 0-.09-.023-.113h.067c.023.022.023.067.023.112zm1.302.044h-.067a.175.175 0 0 0-.045-.113c.09 0 .112 0 .112.113zm-45.852.112c0-.044-.023-.067-.045-.09v-.022c.023-.023.045-.045.067-.045 0-.067.045-.044.113-.044 0 .022-.023.067-.045.112-.023 0-.045.023-.09.045v.044zm44.123.135c-.044-.023-.09-.023-.157-.023v-.112c0-.045-.022-.068-.044-.09h.112v.09c.045 0 .067 0 .09.022.023.023.023.045.023.09l-.024.023zm.741.112c-.022-.045-.044-.09-.09-.134.045 0 .068 0 .09.022v.112zm-23.128.045c0-.045-.022-.067-.044-.09h.09c-.001.023-.024.045-.046.09zm23.892.023c-.023-.023-.045-.023-.067-.023 0-.067-.068-.18-.157-.18 0-.067 0-.134-.023-.202.023 0 .023.022.023.045.067 0 .112.09.112.157.045 0 .067 0 .09.022.022.045.022.113.022.18zm.381.157c-.022-.045-.044-.09-.067-.113 0-.022-.022-.044-.044-.067 0-.045-.023-.067-.045-.09-.022-.023-.067-.023-.113-.023 0-.044 0-.09-.022-.112-.067 0-.045-.067-.045-.112.045.022.09.044.113.067v.09c.067 0 .18.18.18.247.066 0 .043.045.043.113zm-.179.156h-.09v-.156a.168.168 0 0 1 .045.112c.023 0 .045.023.045.044zm-46.324.023h.067v-.067H.292v.067zm44.393.225c-.045-.023-.09-.023-.157-.023 0-.225 0-.203.157-.203v.226zm-.786.18h-.067v-.113h.113v.09c-.001 0-.024 0-.046.023zm3.009 0h-.09v-.135c.023.022.09.045.09.135zm-2.336.157l-.067-.068h.09c0 .023 0 .045-.023.068zm2.044.045h-.09c0-.045 0-.067-.022-.09-.023-.023-.045-.023-.09-.023 0-.044 0-.09-.023-.112a.4.4 0 0 0-.112-.157c0-.023-.023-.045-.045-.067-.134 0 .067-.045.113-.045.022 0 .044.023.067.045 0-.068.045-.045.09-.045 0 .023-.023.067-.045.112 0 .023-.022.068-.044.113l.202.067c0 .045-.023.09-.044.157.02 0 .043.022.043.045zm-1.078.067h-.09c0-.044 0-.09-.022-.112-.067 0-.045-.113-.045-.18-.067 0-.044-.067-.044-.113l.044-.044c-.18-.09-.18-.067-.247-.292h-.044c0-.112.112-.044.18-.044 0 .067.067.022.067.157.022.022.044.044.044.067.023.023.045.045.045.09-.067 0 .045.09.067.09a.27.27 0 0 1 .113.112v.045c.134 0 .044.18-.068.18v.044zm-.202.404h-.067c0-.067-.045-.044-.113-.044 0-.068 0-.135-.022-.18-.068 0-.044-.067-.044-.113h.112c0 .068.067.023.067.158.09 0 .067.112.067.18zm-15.067.068c0-.045-.023-.09-.045-.135.045 0 .068 0 .09.023v.09c0-.001-.022-.001-.045.022zm16.19.045c-.09 0 .023-.067-.157-.067 0-.068 0-.136-.023-.18-.112 0 .023-.045.068-.045v.067c.067 0 .067.045.067.113.067 0 .045.044.045.112zm.808.157c0-.023 0-.045-.022-.045 0-.022-.023-.044-.045-.067.067 0 .067.022.067.112zm-.876.022c-.022-.023-.067-.023-.112-.023a.175.175 0 0 0-.045-.112c-.067 0-.044-.113-.044-.157.067 0 .044.044.044.112h.067v.067c.046.024.068.068.09.113zm.293.112h-.068v-.067c-.066 0-.044-.044.023-.044v.089c.022 0 .045 0 .045.022zm-15.966.203c-.067 0-.067-.113-.157-.113v-.113c.067 0 .044-.044.044-.089-.067-.023-.157-.067-.157-.135h-.112c0-.157.157 0 .224.023a.27.27 0 0 1 .113.113.49.49 0 0 1 .18.111v.09c-.045 0-.09 0-.135.023v.09zm15.853.09l-.067-.203c.022.023.022.045.022.068.068 0 .045.067.045.135zm-1.886.089c-.045-.09-.113-.18-.18-.27 0-.022-.022-.044-.044-.067h-.068c.023-.068.023-.134.023-.18h.112v-.09h.113c.045.023.09.068.112.113a.645.645 0 0 1 .045.202h-.09v.135c.067 0 .045.044.045.112h-.067l-.001.045zm-.449.18h-.067a.177.177 0 0 0-.045-.113h.068v.067c.022.001.044.024.044.046zm1.55.045c0-.045 0-.09-.023-.113 0-.045-.023-.067-.045-.09h.067c.045.045.068.09.09.158h-.09v.045zm-25.667.134h-.067v-.067h.09c0 .023 0 .045-.023.067zm25.89.046c-.022 0-.022-.068-.112-.068v-.112h.113v.18zm.899 0h-.09v-.157c.113 0 .067.112.09.112v.045zm-4.02.044h-.246v-.157c-.068 0-.045-.112-.045-.18.067-.023.113-.045.157-.045 0 .158.067-.09.067.045.023.023.045.045.045.068.113 0 .09.202.023.27zm1.617.112c0-.044-.022-.066-.044-.09 0-.022-.023-.022-.045-.022.045 0 .067 0 .09.023v.09zm1.999.18h-.113c.023-.045.023-.09.023-.113.045.024.067.068.09.113zm-45.18.068h-.066v-.067c.022-.023.044-.045.067-.045v.112zm44.439 0h-.09a.37.37 0 0 0 .045-.113c0-.022-.023-.044-.045-.044-.023 0-.067.022-.113.044 0-.067-.044-.067-.112-.067 0-.068 0-.112-.023-.157 0-.023-.022-.045-.044-.067-.023-.045-.045-.09-.068-.113 0-.022-.022-.044-.044-.067.044 0 .09 0 .112.023.023.067.045.134.068.224.067 0 .044.045.044.112.067.023.113.045.157.068v-.09c-.09 0 .023-.135.023-.045.023-.022.045-.045.045-.067.044 0 .067 0 .067.067.022.022.045.044.045.067.09 0 0 .045-.045.045 0 0-.023-.09-.023 0v.18zm.538.044c0-.022 0-.044-.022-.044-.067 0-.023-.067-.157-.067v-.158h-.067v-.067c-.068 0-.045-.045.022-.045a.17.17 0 0 1 .045.112c.067.024.112.046.157.068.022.067.022.134.022.201zm-26.63.068h-.068c.022-.045.022-.09.022-.113.068 0 .045.045.045.113zm25.126 0c-.022-.023-.044-.045-.09-.045.023-.023.045-.045.045-.067v.067c.023 0 .045.023.045.045zm-1.01.067c-.067-.023-.134-.023-.225-.023v-.27c.045-.044.068-.09.09-.112h.068v.068c.112 0 .112.224.112.314 0 0-.023 0-.045.023zm-1.213.158h-.09c0-.068-.022-.068-.112-.068v-.112c.067 0 .36-.135.202.18zm-41.496.224h-.09a.316.316 0 0 0 .09-.067c.022-.023.022-.045.022-.045 0 .022 0 .067-.022.112zm44.707.023h-.067v-.068c0-.022-.022-.022-.044-.022.044.022.111 0 .111.09zm.853 0c-.022-.023-.044-.023-.067-.023v-.067c-.067 0-.045-.113-.045-.157h.09a.857.857 0 0 1 .022.247zm-45.201.044H1.37v-.067c.067 0 .022-.067.157-.067.022-.045.022-.067.022-.09.045-.023.09-.023.113-.023v.113h-.068v.067c-.044 0-.09 0-.157.023v.044zm31.056.044h.112v-.112h-.112v.112zm-.113.023c-.045-.023-.113-.023-.18-.023a.175.175 0 0 0-.045-.112c-.067 0-.044-.067-.044-.112a.649.649 0 0 1 .202-.045c.023.045.023.113.023.18.066 0 .044.045.044.112zm12.665.046h.09v-.067h-.09v.067zm-2.516.112h-.112v-.068a.32.32 0 0 1 .067-.09v.09c.023.023.045.046.045.068zm2.74.157c0-.023 0-.045-.023-.045a.4.4 0 0 0-.112-.157h.067l.068.202zm1.706.022c-.022-.022-.067-.022-.112-.022a.175.175 0 0 0-.045-.113c.067 0 .113 0 .157.023v.112zm-4.154.09h-.067c-.022-.022-.044-.044-.067-.044v-.113h.112c.022.045.022.09.022.157zm.853.18c-.022 0-.022-.067-.112-.067 0-.045 0-.09-.023-.113-.067 0-.09-.134-.112-.202-.045-.023-.09-.023-.157-.023v-.09c-.068 0-.045-.067-.045-.113h.09c.112.023.202.068.292.113 0 .068.067.068.067.225.022.022.044.045.044.09.068 0 .068.066.068.134h-.113l.001.046zm2.156 0h-.067a.43.43 0 0 0-.045-.18h.113v.18zm-40.643.023c-.09 0 .023-.09-.112-.09a.375.375 0 0 0 .044-.113h.067c0-.09.225-.044.113.18h-.113l.001.023zm40.082 0h-.113c0-.068 0-.135-.022-.18h.067v.09c.068 0 .068.022.068.09zm-2.987.201h-.112a.92.92 0 0 0-.113-.202c-.022-.023-.044-.023-.09-.023v-.067H41.9c0-.068-.022-.112-.045-.157h.113a.37.37 0 0 0 .045-.112c.067 0 .067-.045.067-.113a.366.366 0 0 1 .113-.045c.022 0 .044.023.044.045s-.023.067-.044.113c.022.022.044.044.044.067-.067 0 0 .067 0 .112.023.022.045.044.045.09h-.09v.135c.09 0 .09-.09.09.157zm-24.947.068c-.09 0 0-.068-.112-.068a.175.175 0 0 0-.045-.112c.023-.09.045-.18.045-.27h.067c0 .113.112.044.157.044v.068c-.067 0-.067.225-.067.292l-.045.046zm26.227 0c0-.023 0-.045-.022-.045-.067-.023-.135-.023-.203-.023 0-.044 0-.09-.022-.112-.067 0 0-.09 0-.157-.023-.023-.045-.023-.09-.023v-.314h.09c.022.067.022.134.022.202.068 0 .045.113.045.18.045 0 .09 0 .113.023v.09c.09-.001.067.111.067.179zm1.887.045h-.113c0-.045.113-.157.113 0zm-39.79.021H5.59v-.066a.37.37 0 0 1 .113-.045.365.365 0 0 1-.046.111zm38.308 0c-.023-.022-.045-.022-.068-.022 0-.067-.022-.112-.044-.157h.09c.022-.044.022-.09.022-.112.067 0 0 .225 0 .291zm-41.07.113h-.09v-.113c.045-.022.09-.022.112-.022 0-.112.045.022.045.068-.067 0-.045.045-.067.067zm1.594.113H4.4c.022-.023.044-.023.044-.023 0-.067 0-.112.068-.112.022-.023.044-.045.067-.045a.375.375 0 0 0 .045-.112l.067-.068h.09v.068l-.113.112-.112.113c-.066 0-.044.044-.066.067zm39.071.09a.273.273 0 0 0-.112-.113c.045 0 .09 0 .112.023v.09zm-38.981.067c.09-.09.157-.18.224-.27 0 .045 0 .158-.067.158 0 .09-.157.022-.157.112zm39.61 0c0-.023 0-.045-.023-.067-.067 0-.044-.067-.044-.113h.067v.068c.09 0 0 .067 0 .112zm.741 0c-.023 0-.023-.067-.113-.067v-.203c.023.023.045.045.045.09.09 0 .068.09.068.18zm-1.258.067l-.067-.067c-.09 0 .067-.09.067.067zm.18 0v-.112c.023.022.045.044.045.067l-.045.045zm-40.261.045c-.068 0-.045-.067-.045-.112h.09v.067l-.045.045zm13.405 0h-.134v-.09c-.023-.022-.045-.022-.09-.022v-.112c.067-.023.112-.045.157-.068 0-.134.067.045.067-.044h.09c.023 0 .045.022.067.044v.113l-.067.067h-.09c.023 0 .045 0 .045.023 0 .022-.023.044-.045.089zm-12.889.022c-.067-.067 0-.045 0-.134h.067l-.067.134zm12.642 0h-.112v-.112h.067a.17.17 0 0 1 .045.112zm-1.37.09h-.09c0-.09 0-.157-.022-.224.09 0 .134-.023.134.067.068 0 .045.044.045.113h-.067v.044zm-.269.023H15c.022-.045.044-.09.067-.113.135 0 .045.113.045.113zm-9.678.045v-.113h.09c-.023.023-.045.045-.09.067v.046zm-1.55.045c-.067 0-.044-.067-.044-.113.067-.022.113-.044.157-.044-.022.022-.044.067-.067.112l-.045.045zm.27 0h.068v-.09h-.068v.09zm3.368.067c0-.022-.022-.044-.044-.067h.067c0 .023 0 .045-.023.067zm-5.12.045H2.29v-.09c.068-.023.135-.045.18-.067 0 .022 0 .067-.023.112l-.044.045zm13.339 0h-.113c0-.045 0-.067-.022-.09v-.135c-.068 0 0-.067 0-.113h.09c0-.09.067 0 .112 0v.113c.067 0 .045.067.045.134h-.068c0 .024-.022.046-.044.09zm-1.932.068c0-.068 0-.113-.022-.157.022 0 .022.022.022.044.023.023.045.045.045.067l-.045.046zm1.056.044h-.112v-.112c.044 0 .09 0 .134.022 0 .023 0 .046-.022.09zm28.518.022c-.045-.022-.113-.022-.18-.022v-.09c.023 0 .023.023.023.045a.37.37 0 0 1 .112-.045.173.173 0 0 1 .045.112zm-29.686.046c0-.024 0-.046-.022-.046 0-.022-.023-.044-.045-.066h.113v.066l-.046.046zm20.569.18h-.068c0-.09-.09-.068-.157-.068 0-.045 0-.067-.067-.067a.172.172 0 0 0-.045-.113c.068 0 .045-.044.045-.112.045 0 .067 0 .067.067h.09v-.157h.067a.684.684 0 0 1 .023.224c.09 0 .045.158.045.225zm-27.036.045a.36.36 0 0 0-.09-.158c.068 0 .09.09.09.158zm7.95.067h-.068v-.067c-.022-.068-.044-.135-.067-.18h.067v-.157c.067 0 .067-.045.067-.113a.37.37 0 0 1 .113-.044v.09h.112c0-.068.045-.045.09-.045.023.044.023.09.023.157h-.067v.18h-.113c0-.068-.044-.045-.112-.045v.112c-.068 0-.046.067-.046.112zm-.697.067c-.022-.023-.067-.023-.112-.023v-.157c.067 0 .067-.067.067-.134.067 0 .045-.045.045-.09h.112c.023 0 .045.022.067.045l-.067.067v.112c-.023.023-.045.068-.067.113 0 .022-.022.044-.045.067zm-11.16.09c0-.023 0-.045-.023-.045-.112 0 .023-.067.068-.067v.067l-.045.044zm40.014 0h.09v-.09h-.09v.09zm-30.785.022v-.18h.157v.068c-.022.023-.044.045-.067.09h-.09v.022zm-5.007.09h.112v-.113h-.112v.113zm6.669.022c-.023-.022-.045-.022-.068-.022v-.225a.37.37 0 0 1 .113-.044v.112c.09 0 .044.067 0 .067v.09s-.023 0-.045.022zm-2.29.046h-.18v-.068a.328.328 0 0 1 .067-.09c.044-.023.067-.023.09-.023 0-.066.044-.044.09-.044v.067h-.068v.158zm3.974 0c-.023-.045-.045-.09-.09-.113h.09v.113zm26.968.224l-.067-.067h.067v.067zm-29.798.023v-.09c.023.022.045.044.045.067 0 0-.022 0-.045.023zm1.932 0h.067v-.068H15v.068zm-5.703.044h.044v-.067h-.044v.067zm2.626 0h-.067v-.134h.135a.308.308 0 0 0-.068.09v.044zm.337 0h-.112c0-.09.112-.09.112 0zm2.223 0h-.067c.022-.044.022-.09.022-.134.068 0 .045.067.045.134zm-1.774.068c-.067 0-.044-.068-.044-.113.067-.023.112-.023.157-.023v.067c-.023 0-.067.023-.113.045v.024zm-3.637.045h-.113v-.225c.068-.067.113 0 .113.068.067 0 .044.044.044.112l-.044.045zm2.29 0h-.067v-.067c.022-.046.044-.068.067-.09.045-.023.112-.023.112-.09a.37.37 0 0 1 .113-.045c0-.112.045.023.045.067-.045.023-.09.045-.158.068 0 .022 0 .044-.022.09-.023 0-.045 0-.09.022v.045zm31.751.044c-.023-.044-.045-.09-.09-.112-.067 0-.044-.045.023-.045v.068c.067 0 .067.022.067.09zm-30.381.136c0-.045 0-.09-.023-.113h.067v.09s-.022 0-.044.023zm-3.705.111c-.023-.022-.045-.022-.068-.022v-.113c.045 0 .09 0 .113.023v.09s-.023 0-.045.022zm5.276.09h-.09c.045-.044.09-.067.113-.09 0 .023 0 .046-.023.09zm21.513 0h-.068v-.112a.37.37 0 0 1 .113-.045v.067c0 .023-.023.046-.045.09zm-24.252.135c-.022-.023-.044-.023-.09-.023l.113-.113c0-.09.134.023.045.023a.494.494 0 0 0-.068.113zm2.133.045v-.224c.023-.023.045-.045.045-.068.023 0 .045 0 .067.023 0 .045 0 .09-.022.157-.022.022-.045.067-.09.112zm.674 0c0-.023-.022-.045-.044-.067.044 0 .09-.09.09.022-.001 0-.024.022-.046.045zm-1.257.023l-.068-.068h.068v.068zm-2.605.112h-.068c.023-.045.045-.09.068-.113.044-.023.09-.023.112-.023 0 .023 0 .045-.023.068a.283.283 0 0 1-.09.068zm31.908 0c-.022-.023-.067-.023-.112-.023 0-.113 0-.202-.023-.292.067 0 .09 0 .09.068.023 0 .045.022.045.044.157 0 0 .203 0 .203zm-28.742.225h-.09c.023-.023.045-.023.045-.023a.308.308 0 0 1 .067-.09c0 .023 0 .067-.022.113zm-5.748.157h-.113v-.068c.067 0 .067-.067.067-.112.068 0 .113 0 .158.023v.09c-.023 0-.068 0-.113.022v.045zm1.414.179h-.09c.023-.023.045-.023.045-.023.023-.022.045-.044.067-.044 0 .022 0 .045-.022.067zm26.789 0c-.067-.023-.202-.09-.202-.18h.112v.067c.045.024.067.068.09.113zm-28.473.045H7.59v-.067c0-.067.067-.023.067-.113.023.023.045.045.045.068-.068 0-.045.067-.045.112zm30.202.022h.067V47.9h-.067v.067zm-1.505.045s-.112-.067-.044-.067c0-.112.044.022.044.067zm7.433.18h-.067v-.112c.067 0 .067.045.067.112zm-6.378.113c-.022-.023-.067-.023-.112-.023 0-.045 0-.09-.023-.113h-.09v-.09c.045-.022.068-.022.09-.022 0-.068.045-.045.113-.045.022.045.022.09.022.157.068 0 .045.045.045.113 0 0-.022 0-.045.023zm.854.111c-.023-.022-.067-.022-.113-.022v-.113a.649.649 0 0 1 .203-.044c.022.044.022.09.022.157h-.112v.022zm4.85.225h-.067v-.112c.044-.023.09-.023.112-.023v.113s-.022 0-.045.022zm-5.03.225a1.087 1.087 0 0 0-.067-.157c0-.023-.023-.045-.045-.068-.022-.022-.067-.022-.112-.022v-.158h.157c.023.023.023.068.023.113.067 0 .044.067.044.135.067 0 .045.044.045.112l-.045.045zm-.898.066c-.045-.022-.112-.044-.18-.066 0-.045 0-.09-.022-.113-.023-.044-.045-.09-.09-.112-.09 0-.135-.045-.135-.135a.92.92 0 0 0-.112-.202c0-.023-.023-.045-.045-.067.067 0 .18.022.18-.068.045 0 .067 0 .09.023.022 0 .044.023.067.045v.18c.067 0 .113.022.157.044v-.067c.023.022.023.044.023.067h.112v.067c.068 0 .045.045.045.113 0 .022-.023.044-.045.067.068 0 .045.045.045.113-.023.022-.045.067-.09.111zm6.355.158h-.09c0-.044 0-.067-.067-.067v-.09h-.068v-.112h.135v.09c.067 0 .045.044.045.112.022.023.045.045.045.067zm-4.828.157h-.113v-.09c.09 0-.022-.067-.022-.112 0-.023-.023-.045-.045-.067.067-.023.135-.046.18-.068v.113c.067 0 .044.112.044.18l-.044.044zm-1.1.18h-.09c0-.045 0-.067-.067-.067 0-.09-.023-.157-.045-.225.067 0 .113 0 .157.023v.045c.112 0 .045.157.045.223zm3.278 0c0-.023 0-.045-.023-.045-.067 0 .023-.044.023-.112h.09v.112h-.09v.044zm1.168 0a.275.275 0 0 0-.113-.112c-.067 0-.044-.113-.044-.158h.067c.023.023.045.045.045.09.112 0 .045.135.045.18zm.314.022c-.023-.023-.045-.023-.067-.023 0-.066-.045-.066-.112-.066-.023-.023-.045-.045-.068-.045 0-.067.09-.09 0-.18.045 0 .068 0 .068.068.09 0 .112.09.112.18h.067v.066zm.943.158a.322.322 0 0 0-.157-.045v-.202c.045 0 .068 0 .068.066.067 0 .044.068.044.136.023 0 .045.022.045.045zm-.202.067c-.023-.023-.045-.023-.067-.023v-.09c.067 0 .067.046.067.113zm-2.425.157h-.112a1.898 1.898 0 0 0-.113-.382c.045-.023.09-.023.135-.023v.114c.045 0 .067 0 .09.022v.27zm1.661.112h-.067v-.067h-.09v-.112c.045 0 .068 0 .09.023v.09h.067v.066zm.338.113h-.09c0-.045 0-.068-.068-.068v-.157c.067 0 .067-.09.067-.157.068 0 .045.045.045.113.135 0 .046.224.046.269zm-4.312.045h-.067c-.022-.045-.067-.067-.112-.09v.09a.316.316 0 0 0-.068-.09c-.022-.023-.044-.023-.09-.023 0-.045 0-.09-.022-.112a.4.4 0 0 0-.113-.157c0-.023-.022-.045-.044-.068.067 0 .09-.112 0-.112 0-.067 0-.113-.023-.157h.09l.202.067c.023.067.023.135.023.202h-.067v.135c.067 0 .067.023.067.09.023.022.045.044.045.067h.224a.174.174 0 0 0-.045-.112c.045 0 .113-.113.113.044h.09v.068h-.09c-.023.022-.067.044-.113.067v.09zm3.863.022l-.068-.067a.322.322 0 0 0-.27-.158v.09c-.067 0-.044-.112-.067-.156h-.157a1.087 1.087 0 0 0-.067-.157c-.067 0-.045-.068-.045-.113.068 0 .045-.067.045-.135h.067v.113c.046 0 .068 0 .068.067h.09c0 .068.067.045.112.068.023.044.023.09.023.157h.09c0 .066.067.044.112.066.022.068.022.136.022.203.022 0 .045 0 .045.022zm-.158.068c-.022-.023-.044-.023-.067-.023v-.045c-.09-.09.067-.022.067.068zm-2.515.157h-.112l-.068-.405c-.112 0 .023-.045.068-.045.022.068.044.136.067.225.067 0 0 .113 0 .18.023 0 .045.022.045.045zm.584.18c-.045-.045-.134-.068-.134-.136h.067c0-.134.067.09.067.136zm1.235 0c-.023-.045-.045-.09-.067-.114 0-.022-.023-.044-.045-.066l.067-.067c.045 0 .068 0 .09.022v.157c0 .022-.022.045-.045.068zm-1.863.044h-.068c0-.067-.067-.067-.134-.067v.067h-.09c0-.067-.023-.067-.113-.067 0-.067-.044-.045-.112-.045-.023-.022-.045-.045-.067-.045 0 .023-.023.068-.045.113-.023-.023-.067-.023-.112-.023 0-.067 0-.113-.023-.157h.068c0 .067.066.044.112.044 0-.066.112-.044.18-.044v-.067c.067 0 .044-.045.044-.112a1.087 1.087 0 0 0-.067-.158c.022.023.022.045.022.068.068.022.113.044.113.157.023.022.045.045.045.067h.067a.17.17 0 0 1 .044.112h.068c0 .067.068.023.068.157zm1.28.067c-.023-.022-.045-.022-.09-.022v-.314c.134 0-.023-.202-.023-.202a.406.406 0 0 0-.113-.158h-.112v-.112c-.067 0-.045-.067-.045-.112a.322.322 0 0 0-.156-.045c0 .023 0 .067-.024.113-.067 0 .024.111.024.202.044 0 .066 0 .089.022.022 0 .045.023.067.045v.113c.045 0 .067 0 .067.067h-.112v.156c.045 0 .067 0 .09.023.022.045.022.113-.045.113v-.113c-.022-.023-.067-.023-.112-.023 0-.089-.09-.089-.18-.089-.023-.09-.045-.18-.067-.247h-.045c0-.067-.09 0-.157 0v.113h-.113c0-.045 0-.09-.022-.113h-.09c0-.045 0-.09-.023-.113a.275.275 0 0 0-.112-.112h-.09c0-.044 0-.09-.023-.112-.09 0 .023-.068-.157-.068.023 0 .045 0 .045.023v.113c.09 0 0 .044-.045.044v.112h-.067a.175.175 0 0 0-.045-.112h-.067c0-.067-.045-.044-.112-.044v.112h-.113v.09c.067 0 .045.045.045.112a.17.17 0 0 0-.113-.044.435.435 0 0 1 .023.18c.023.022.045.044.045.067-.023-.023-.068-.023-.113-.023-.023-.023-.045-.045-.067-.045 0-.157-.067.135-.067.157-.068 0-.045.068-.045.113 0 .023-.023.045-.045.067a.316.316 0 0 1 .09.068h-.157v-.135c-.067 0 0-.09 0-.157h-.224c0-.113-.068-.18-.225-.18a1.087 1.087 0 0 0-.067-.157c-.09 0-.045-.134-.067-.18-.068 0-.068-.067-.225-.067a.36.36 0 0 0-.09-.157c.023-.023.045-.045.045-.067h-.067v-.09c-.023-.023-.045-.023-.09-.023 0-.09-.044-.067-.135-.067 0-.067-.112-.113-.112-.224h-.067c-.023-.023-.045-.045-.09-.045 0-.045 0-.067-.067-.067v-.09c-.068 0-.045-.068-.045-.113h-.067v-.112c0-.023-.023-.045-.045-.067-.045 0-.09.022-.135.044 0-.067-.022-.067-.09-.067 0-.09 0-.157-.022-.224h-.113a.273.273 0 0 0-.112-.113v-.157h.067c.023-.023.045-.045.068-.045.044 0 .067.023.09.045 0-.09.112-.471-.045-.471v-.114h-.068c-.022-.022-.044-.044-.067-.044 0 .068-.247.044-.314.044 0-.044 0-.066-.023-.089-.112-.044-.157-.112-.157.09h-.067a.402.402 0 0 0-.113-.157c-.067 0 0-.09 0-.157-.022-.023-.067-.023-.112-.023a.175.175 0 0 0-.045-.112h-.067v.044c-.18 0-.224-.044-.224-.224-.068 0-.045-.067-.045-.113a.42.42 0 0 0-.18-.044v-.067c0-.045-.022-.068-.044-.09h-.135v-.18c-.022-.023-.067-.023-.112-.023v-.09c-.023-.022-.068-.022-.113-.022 0-.067-.044-.045-.112-.045 0-.09-.09-.067-.157-.067v-.045c.067 0 0-.134 0-.224a.649.649 0 0 1 .202-.045.684.684 0 0 1 .023.224c.044 0 .09.023.112.045 0 .135.112-.134.112.113.023 0 .045.022.045.044.09 0 .067-.134.067-.202.045 0 .068-.023 0-.023 0-.067 0-.112-.022-.157-.113 0-.045-.18-.157-.18v-.067a.312.312 0 0 0-.068-.09c-.022-.022-.044-.022-.09-.022 0-.045 0-.067-.022-.09-.067-.023-.135-.023-.202-.023 0-.067 0-.112-.023-.157a.322.322 0 0 0-.157-.044c-.023 0-.045.022-.067.044 0-.067-.045-.067-.113-.067a.274.274 0 0 0-.112-.113c-.023-.023-.045-.044-.068-.044 0-.113-.044.022-.044.067.09 0 .044.135.044.202h.068v.113h-.158c0-.045 0-.09-.022-.113-.067 0-.045-.067-.045-.112a.274.274 0 0 0-.112-.113c.044 0 .09 0 .112.023l-.067-.134h.112c.023-.045.023-.09.023-.113h-.067c0-.067-.045-.067-.113-.067v-.09c-.067 0-.044-.068-.067-.113h-.067v.09c-.023 0-.045 0-.09.023v.09h-.113c0-.045 0-.067-.022-.09-.045-.023-.09-.023-.157-.023 0-.067-.023-.112-.045-.157h-.067c0-.067-.045-.067-.113-.067v-.09c-.112 0 .023-.134-.112-.134 0-.068 0-.135-.023-.18.067 0 .135 0 .18.022v.09h.067v-.09c.045 0 .067-.022 0-.022-.022-.023-.044-.045-.067-.045 0-.112-.18-.112-.27-.112a.17.17 0 0 1 .045.112h-.067c-.023 0-.045.023-.09.045-.023-.023-.045-.045-.067-.045-.023-.044-.045-.09-.068-.112 0-.023-.022-.045-.044-.068a.17.17 0 0 0-.113-.044c0-.067-.044-.067-.112-.067a1.06 1.06 0 0 0-.068-.158c-.09 0 0-.067-.112-.067 0-.067-.045-.067-.112-.067a1.087 1.087 0 0 0-.068-.157h-.09c0-.045 0-.09-.022-.113-.09 0-.067-.18-.203-.18 0-.112 0-.224-.022-.336a.273.273 0 0 0-.113-.113h-.112c-.023 0-.045.023-.067.045a.92.92 0 0 0-.113-.202c0-.023-.022-.045-.045-.068.113 0 .045-.202.045-.27-.022-.022-.045-.022-.09-.022 0 0-.022-.09-.022 0h-.09c.022 0 .044 0 .044.023 0 .067.068.022.068.156.09 0 0 .068 0 .113l-.135-.067v-.045c-.112 0-.044-.18-.157-.18-.023-.044-.045-.09-.067-.112h-.067v-.067c-.068 0-.068-.113-.158-.113v-.09c-.044-.022-.09-.022-.157-.022 0-.067 0-.113-.022-.157 0-.023-.023-.045-.045-.067a.316.316 0 0 0-.067-.09c-.068-.023-.135-.023-.203-.023a.356.356 0 0 0-.09-.157c0-.023-.022-.045-.044-.067-.067 0-.045-.068-.045-.113h-.067c0-.09-.09-.067-.157-.067 0-.067.022-.113-.067-.113l-.068-.202a.805.805 0 0 0-.202-.09c0-.044 0-.067-.023-.09h-.067v-.067a.27.27 0 0 0-.112-.112c0-.023-.023-.045-.045-.068-.113 0 .023-.112-.113-.112 0-.067-.044-.045-.112-.045-.023-.044-.045-.09-.067-.112a.274.274 0 0 0-.113-.113c0-.022-.022-.044-.044-.067-.09 0 0-.067-.113-.067 0-.068-.045-.045-.112-.045 0-.045 0-.09-.023-.112-.023-.045-.045-.09-.09-.113h-.067c-.023-.045-.045-.09-.067-.112h-.09c0-.045 0-.09-.023-.113-.067 0-.09-.134-.224-.134a.175.175 0 0 0-.045-.113h-.067c0-.134-.225-.112-.225-.224h-.067v-.09c-.022-.023-.044-.023-.09-.023 0-.044 0-.067-.022-.09-.023-.022-.045-.022-.09-.022-.023-.023-.045-.045-.067-.045 0-.09-.113-.112-.135-.18-.067 0-.023-.067-.157-.067v-.09c-.023-.022-.067-.022-.113-.022a.175.175 0 0 0-.044-.113h-.067a1.035 1.035 0 0 0-.068-.157h-.09v-.067h-.067a.175.175 0 0 0-.044-.113h-.068c0-.044 0-.067-.067-.067v-.09c-.023-.022-.067-.022-.112-.022a.27.27 0 0 0-.113-.113 1.087 1.087 0 0 0-.067-.157c-.023 0-.113-.112-.113.045a.17.17 0 0 0-.09.022c-.022 0-.044.023-.067.045a1.06 1.06 0 0 0-.067.157l-.067.067h-.09l-.067.068c-.023.022-.045.067-.068.112l-.112.113h-.09v.112h-.113l-.067.067-.112.113v.09c-.023 0-.068 0-.113.022-.022 0-.044.023-.067.045 0 .022-.023.067-.045.112h-.067v.068h-.067c-.023.022-.045.044-.09.067v.09c-.023 0-.067 0-.113.022-.022 0-.044.023-.067.045a1.986 1.986 0 0 1-.112.18c-.023 0-.045.022-.068.044-.022.023-.044.068-.067.113a.592.592 0 0 1-.112.134h-.09c0 .023 0 .045-.023.09 0 .023-.022.045-.044.067-.068 0-.045.068-.068.113l-.27.067c0 .023 0 .045-.022.09-.023 0-.045 0-.09.023 0 .044 0 .09-.022.157-.068 0-.045.067-.045.112h-.113v.113l-.067.067-.202.067c0 .023 0 .068-.023.113 0 .022-.022.044-.044.09l-.068.067h-.18c0 .023-.022.067-.044.112-.023.045-.045.113-.067.18-.023 0-.068.023-.113.045v.067h-.09c0 .022 0 .067-.022.113l-.113.112h-.09l-.067.067c-.022 0-.045.023-.067.045v.112c-.023.022-.067.045-.113.067v.068c-.022.023-.044.045-.067.09-.045 0-.112 0-.112.067 0 .023-.023.045-.045.067h-.067c0 .023-.023.068-.045.113-.023 0-.067.022-.112.044-.023.023-.045.068-.068.113-.022-.023-.044-.045-.067-.045v.113h-.202c0 .09 0 .18-.023.27a.17.17 0 0 0-.09.022c0 .022 0 .044-.022.09h-.09c0 .022 0 .067-.023.112 0 .023-.022.045-.044.068 0 .022-.023.044-.045.067h-.067c-.023 0-.045.022-.068.045-.022 0-.044.022-.067.044v.135h-.112c0 .022-.023.067-.045.112h-.067c.022-.044.022-.09.022-.134.068 0 .023-.046-.022-.046v.068h-.09c0 .068-.067.045-.113.068v.09c-.044 0-.112 0-.18.022l-.112.112v.203c.023.022.045.044.045.067 0 .023-.023.045-.045.067a2.805 2.805 0 0 0-.224-.067c-.023.023-.068.045-.113.067-.022 0-.044.023-.067.045 0 .112-.067-.045-.067-.045h-.09c0 .023 0 .045-.023.09v.023c.023 0 .045.022.068.044 0 0-.023 0-.045.023 0 .045 0 .09-.023.157.068 0 .135 0 .135-.067a.37.37 0 0 1 .112-.045c0 .023 0 .067-.022.113h-.09l-.067.067c-.045.023-.09.067-.158.113h-.089c-.023 0-.045.022-.09.044 0 .067-.068.045-.113.067-.022 0-.044.023-.067.045-.023.022-.045.067-.067.112-.023.023-.045.068-.09.113h-.18c-.023-.023-.045-.045-.067-.045-.045.023-.09.045-.157.068 0 .044 0 .112-.068.112 0 .023 0 .067-.022.113h.134c.045.022.09.044.113.09v.112l-.067.067h-.045c0 .067-.09 0-.157 0 0 0-.023-.09-.023 0-.022.023-.045.067-.09.113.023.022.045.044.045.067h-.18c0 .067-.112.023-.112.112a2.155 2.155 0 0 1-.113.18h-.18c-.022 0-.044.023-.09.045 0 .022 0 .067-.022.112-.045.023-.09.045-.157.068-.023 0-.045.022-.067.044-.023.023-.045.045-.09.067 0 .113-.023.18-.135.18-.022 0-.044.023-.067.045v.157h-.113c.045-.09.045-.292-.09-.292v-.157c.113-.022.203-.044.292-.067v-.045c.113 0-.022-.314-.022-.337h-.113a.477.477 0 0 0-.067.113c0 .023-.023.045-.045.067h-.112c-.023 0-.045.023-.067.045-.023.022-.045.044-.09.067v.224h-.292c0 .09-.023.18-.135.18v.09c-.044 0-.09 0-.157.023l-.067.202a.17.17 0 0 0-.112-.045c-.023 0-.045.023-.09.045 0 .022 0 .067-.023.113a.17.17 0 0 0-.09.022c-.022 0-.044.023-.067.045v-.067c.067 0 .067-.045.067-.113.068 0 0-.134 0-.202-.022-.023-.202-.045-.202.044-.09 0-.09.135-.09.225.067 0 .157.18.045.18-.023.022-.068.044-.113.09v-.203c.09 0 .045-.113-.067-.113 0 .068-.09.068-.09.203-.067 0-.134 0-.224.022 0 .023 0 .045-.023.09-.045.023-.112.045-.18.09v.09c-.044 0-.09 0-.157.023a2.805 2.805 0 0 0-.067.224h-.224c.022-.045.022-.09.022-.134.067 0 .113-.113.113-.203.09-.022.157-.022.224-.022a.316.316 0 0 0 .09-.068c.023-.044.023-.067.023-.09.044 0 .067-.022 0-.022-.023-.023-.045-.045-.068-.045 0-.112-.067-.022-.067.045-.09 0-.202 0-.314.022v-.359c.067 0 .044-.045.044-.09.023-.022.045-.022.045-.022-.067 0-.134 0-.202.022 0 .09 0 .18-.023.27h-.224c-.023.022-.068.044-.113.067v-.067c.023-.023.045-.045.045-.068h.067c0-.067.067-.022.067-.112.09 0 .09-.112.09-.202-.022 0-.067.022-.112.044h-.09c0 .023 0 .068-.023.113 0 .022-.022.044-.044.067 0 .023-.023.045-.045.09h-.112c-.023-.023-.045-.045-.068-.045a.477.477 0 0 0-.067.113h-.09c-.022.044-.045.09-.09.157-.044 0-.09 0-.157.022 0 .068-.067.045-.112.045v-.112c.067 0 .044-.045.044-.113h-.09l-.067.067c0 .09-.18.068-.18.203 0-.045-.022-.067-.044-.09.067 0 .067-.045.067-.113.045-.022.09-.022.113-.022v-.09c.044-.023.09-.023.112-.023l.112-.112c0-.045.135-.113.045-.113v-.09h-.067c-.023 0-.045.023-.09.045l-.067.067c-.045.023-.09.068-.157.113-.023 0-.045.023-.068.045v-.113l.068-.067c.044-.045.067-.09.09-.113-.068 0-.135 0-.225.023l-.112.112c0 .068-.113.09-.158.113 0 .023.113.112-.067.112 0 .135-.067-.09-.067.045h-.113v.067c-.067 0-.112.135-.112.203-.045 0-.09 0-.157.022-.045.023-.113.045-.18.068 0 .044-.022.09-.045.157h-.067c-.022.022-.044.067-.067.112h-.09c-.023.023-.067.045-.112.067-.023 0-.045.023-.068.045-.022.022-.044.067-.067.113-.023.022-.045.067-.067.112l-.113.112c-.067 0-.134 0-.224.023-.045.023-.09.067-.157.113 0 .067-.113.09-.157.112-.023 0-.045.023-.068.044v-.067a.316.316 0 0 1 .068-.09c.067-.022.112-.022.157-.022 0-.067.067-.023.067-.113.067 0 .023-.067.113-.067l.112-.113c0-.067.045-.044.09-.044.023-.045.023-.09.023-.112.022-.023.044-.045.044-.068h.067c.023-.022.045-.044.068-.044v-.068l.112-.112h.09c.023-.045.023-.067.023-.09.044 0 .112.09.112-.023.067 0 .045-.09.045-.157h-.113c0 .09-.202.113-.291.113 0 .067-.068.044-.113.044v.067c0 .023-.022.045-.044.068h-.225c-.022 0-.045.023-.067.045v.067c-.023 0-.067.023-.113.045-.044.022-.09.044-.157.067 0 .022 0 .044-.022.09-.068 0-.045.112-.045.18h-.112v-.068c-.023 0-.045 0-.068.023 0 .067-.202.044-.27.044-.022.023-.067.045-.112.068 0 .022 0 .067-.022.112h-.045c0 .067-.067 0-.135 0a.308.308 0 0 1-.09.067H8.71c0 .068-.112.09-.157.113v.09c-.067.022-.157-.023-.157.112h-.067c0-.067.067-.022.067-.112l.113-.113c.112 0 .112-.067.112-.157.067 0 .023-.067.157-.067l.068-.067c0-.068 0-.113-.023-.157-.023 0-.113-.113-.113.044-.022 0-.044 0-.09.023 0 .022 0 .044-.022.09-.067 0-.045.09-.045.134l-.27.067v.09h-.067c0-.09 0-.157-.022-.224 0-.023-.023-.045-.045-.067.067 0 .045-.09.045-.157 0-.023-.023-.045-.045-.068.067 0 .067-.044.067-.112l.045-.045c-.067 0 .023-.112.023-.18l.112-.112c.045-.045.067-.09.09-.113h.067v-.067a.316.316 0 0 1 .068-.09c.044-.022.09-.022.112-.022 0-.045 0-.068-.023-.09 0-.023-.022-.045-.044-.067.09 0 .067-.158.067-.225.023-.022.045-.044.045-.067-.045 0-.113 0-.18.023 0 .067-.113.09-.157.112v.09c-.023 0-.067 0-.113.022 0 .067-.134.09-.134.203-.023 0-.045 0-.09.022 0 .023 0 .045-.023.09-.022 0-.067 0-.112.023v.09c-.023 0-.067 0-.113.022-.022.023-.044.045-.09.068.023-.023.045-.023.045-.023v-.067c.067 0 .067-.09.067-.157.247 0 .203-.18.203-.382 0-.022-.023-.045-.045-.067-.067 0-.112-.113-.27-.045v-.09a1.21 1.21 0 0 1 .158-.09v-.067l.067-.067c.134 0-.113-.113.09-.113.022-.067.022-.112.022-.157h.045c0-.112-.09-.045-.157-.045-.023 0-.045.023-.067.045a2.805 2.805 0 0 0-.068.225.17.17 0 0 0-.112-.045c-.023 0-.045.023-.09.045l-.067.067v-.067l.067-.068h.09c.023-.044.023-.09.023-.112.112 0-.023-.202-.023-.202h-.09c0 .067-.067.044-.112.044-.023 0-.045.023-.068.044v-.089c.023-.023.045-.045.045-.067-.067 0-.045-.157-.045-.225h-.067c-.023 0-.045.023-.067.045 0 .067-.113.045-.157.045 0-.113-.068.044-.068-.045a.17.17 0 0 0-.112-.045c-.023.023-.067.045-.113.09v.068c-.112 0 .023.067.023.067 0 .09 0 .179-.023.291-.067 0-.09.113-.09-.112.068 0 .045-.067.045-.135-.09 0-.044-.157-.067-.224-.067 0-.045.067-.067.113 0 .022-.023.044-.045.067-.067 0-.045.067-.067.112 0-.022-.023-.044-.045-.067-.112 0 .045-.18-.112-.18v-.112c-.068 0 0-.068 0-.113h.067v-.202c.067 0 .045.09.045.157h.067c0 .067.202.044.27.044v-.112a.322.322 0 0 0-.158-.044c-.022-.023-.044-.045-.067-.045v-.067c-.067 0 0-.068 0-.113-.112-.022-.224-.022-.337-.022v.067c.067 0 .045.067.045.134-.067-.022-.135-.022-.203-.022 0-.203-.022-.157-.18-.157 0 .09-.224.044-.29.067 0 .09-.225.112-.338.112 0 .068-.067.045-.112.045l-.068.067-.112.112v-.112c-.067 0-.045-.067-.045-.112.068-.023.113-.023.157-.023 0-.044-.022-.067-.044-.09H5.07c-.023 0-.045.023-.068.045 0 .09-.291.045-.381.067v-.067c-.023-.045-.045-.09-.067-.112h-.068v.18c-.067 0-.09.112-.202.112 0 .022 0 .067-.023.112h-.09c-.022 0-.044.023-.067.045v-.068c0-.067.067-.023.067-.156h.113c0-.09-.045-.068-.135-.068-.022-.022-.044-.044-.09-.044 0 .112-.246-.023-.246.157-.045 0-.09 0-.158.022 0 .068-.112.045-.18.045 0 .067-.067.044-.112.044 0-.067-.044-.044-.112-.044v.067c.112 0 .044.113.044.203-.044 0-.112 0-.112.067-.045.022-.113.045-.18.067-.022.023-.067.045-.112.067 0 .023-.023.067-.045.113h-.112c0 .067-.068.045-.113.045-.023.022-.045.067-.067.112 0-.023-.023-.045-.045-.067a.37.37 0 0 1 .113-.045v-.067A.316.316 0 0 1 2.69 45c.045-.023.112-.023.112-.09l.113-.112h.157c.023-.068.023-.113.023-.158.067 0 .09-.09.09-.157-.023-.022-.068-.022-.113-.022v-.203c0-.022-.023-.044-.045-.067h-.112a2.805 2.805 0 0 1-.225.067c.023-.022.045-.022.045-.022v-.067c-.045 0-.112 0-.18.022 0 .067-.067.045-.112.045.022-.023.022-.045.022-.067.068 0 .045-.045.045-.113h-.067c-.023-.023-.045-.045-.09-.045-.023 0-.045.023-.067.045 0 .022 0 .067-.023.113h-.112c.022-.045.022-.09.022-.113l.113-.112c.09 0 0-.068 0-.113-.068 0-.135 0-.225.023 0 .022 0 .044-.022.09-.023 0-.045 0-.09.022 0 0 0 .023-.023.045v-.27h.068v-.067c.09 0 .044-.224.044-.292a.273.273 0 0 0-.112-.112h-.09c0-.09-.113-.067-.18-.067v-.158H1.59c0-.067-.045-.067-.113-.067a.175.175 0 0 0-.044-.112c.157 0 .134-.382.09-.517h-.158v-.157c0-.023-.022-.045-.044-.067h-.067a.175.175 0 0 0-.045-.113h.09c0-.067.067-.067.134-.067 0-.067 0-.135-.022-.202h-.09c0 .022 0 .044-.023.09-.022 0-.067 0-.112.022-.023 0-.045.023-.09.045 0 .022 0 .067-.023.112h-.09v-.157c.068-.023.113-.023.157-.023 0-.067 0-.112.068-.112 0-.135.224.045.224-.112.045-.045.067-.09.09-.113h-.224c0-.134-.158-.045-.27-.045 0 .158-.067-.157-.067-.157-.023-.022-.045-.022-.09-.022v-.068c-.067 0-.157 0-.247.023v-.068c-.067 0-.045-.067-.067-.112-.068 0-.023-.067.022-.067v-.112c.135 0 .045-.113.045-.158-.067 0-.045-.112-.045-.18h.09v-.067h.067c.023-.022.045-.044.068-.044.022-.068.044-.135.067-.18.067 0 .045-.045.045-.09.022-.022.044-.045.044-.067H.87v-.067l.113-.113h.09c.022-.045.022-.067.022-.09.068 0 .045-.044.045-.09-.067 0-.135 0-.224.022-.023 0-.045.024-.068.046.023-.068.023-.135.023-.18.067 0 .09-.113.224-.113l.113-.112v-.09c.022-.023.044-.045.044-.068-.067 0-.044-.112-.067-.156h-.09v-.068c.09 0 .18.023.27.045v-.067c.09 0 .067-.09.067-.157h.045c0-.135-.203-.045-.27-.045 0 .023 0 .067-.022.113h-.09c-.023 0-.045.022-.068.044-.022 0-.044.023-.067.045v.067H.802c-.023-.023-.045-.045-.067-.045-.045.023-.09.045-.157.068 0 .067-.09.044-.135.044-.045.023-.09.068-.157.112.023-.066.045-.112.067-.156.045-.023.068-.023.09-.023.023-.023.045-.045.067-.045v-.067c.113 0 .023-.112 0-.157.023.023.045.045.045.09h.067c.023-.023.045-.045.068-.045 0-.068.044-.068.112-.068.023-.089.045-.156.067-.223a.37.37 0 0 1 .113-.045.316.316 0 0 0 .09-.067c.022-.045.022-.09.022-.113a1.23 1.23 0 0 0 .157-.067v-.09c.09 0 .068-.112.068-.18.022-.022.044-.044.044-.067h-.112v.067c-.023.023-.045.068-.067.113h-.09c0 .067-.068.044-.113.044 0 .045 0 .113-.022.18-.113 0-.225 0-.337.023l-.068.202c-.067 0-.134 0-.224.023v.09c-.045 0-.09 0-.157.022 0 .068-.045.023-.045-.022a.37.37 0 0 1 .113-.045.37.37 0 0 0 .044-.112c.068-.023.135-.045.18-.068v-.09c.045-.023.067-.023.09-.023.023-.044.023-.09.023-.112.044-.067.09-.112.112-.157.045-.022.067-.022.09-.022.023-.045.023-.113.09-.113 0-.067.045-.045.09-.045.022-.045.022-.09.022-.112h.09c.023-.067.023-.135.023-.18.067 0 .112 0 .112-.067.09 0 .068-.113.203-.113.022-.045.022-.09.022-.112l.113-.112a.37.37 0 0 1 .112-.045l.067-.067v-.09c.023-.023.045-.045.045-.068h.113v-.067c.067 0 .022-.067.157-.067.022-.045.022-.09.022-.113h.09c.023-.044.023-.067.023-.09.044-.022.067-.022.09-.022.022-.045.022-.067.022-.09.045-.022.09-.022.113-.022 0-.068.067-.023.067-.113.045-.067.09-.112.113-.157.022-.023.044-.045.044-.067.067 0 .067-.045.067-.113h.113v-.067c.067 0 .112-.135.112-.224l.113-.113h.112c0-.067.068-.023.068-.112h.157c.022-.023.044-.045.067-.045.045-.023.067-.045.09-.067.022-.045.022-.09.022-.113h.09v.067c.045-.022.09-.022.135-.022 0-.067 0-.113-.023-.157a.36.36 0 0 0-.09-.157c.023-.023.045-.045.045-.068h.067a.362.362 0 0 0 .045-.112h.112c.023 0 .045.022.068.044.022-.022.044-.044.067-.044 0-.067.045-.045.09-.045v-.067h.067c0-.067.09-.067.157-.067a.175.175 0 0 0-.044-.113c.022-.022.044-.044.044-.068-.067 0 0-.066 0-.112h.067c0-.067.045-.044.113-.044 0-.067.067-.045.134-.045v-.112c.023-.023.045-.045.045-.068H4.8a.316.316 0 0 0 .09-.067v-.09c.045-.022.09-.022.113-.022v-.068h.247v-.27c.112-.022.224-.044.337-.044 0-.067 0-.134.067-.134v-.09c.022-.023.045-.045.045-.068h.067a.316.316 0 0 0 .09-.067c.022-.112.022-.202.022-.291.045-.023.068-.045.09-.045.023.134.023.292.023.45h.067c0-.068.045-.045.09-.045.022-.068.022-.135.022-.18.023-.023.045-.045.045-.067-.09 0-.045-.45-.045-.539.068-.023.113-.023.158-.023v-.067c.067 0 .044-.045.044-.09.045-.022.09-.022.135-.022v-.09h.112c.045 0 .068.022.09.044.023-.112.023-.202.023-.291a.37.37 0 0 1 .112-.045v.113h.225c.022-.09.044-.158.067-.225.09 0 0-.067 0-.112h-.067c0 .112-.045-.023-.045-.068h.09c.022-.044.022-.09.022-.112h.113v-.113c.067 0 .023-.067.112-.067 0-.067.045-.044.09-.044.023.044.023.112.023.18h.157c.023-.045.023-.09.023-.135.067 0 .044-.045.044-.09.023-.023.045-.045.045-.067-.067 0-.09-.157-.09-.225.045-.022.067-.022.09-.022.023-.023.045-.045.067-.045 0-.067.045-.067.113-.067.022-.023.044-.045.067-.045l.202.067c.023 0 .045.023.068.045.022-.09.022-.157.022-.224.023-.023.045-.045.045-.068h.18a.649.649 0 0 0 .044-.202c.067 0 .067-.067.067-.135.023-.022.045-.044.045-.067a.17.17 0 0 0-.112-.044v-.113h.18v.067h.112c0-.067 0-.134-.023-.18 0-.022-.022-.044-.044-.067h.112v.068c.09 0 .157.022.224.044.023-.044.023-.067.023-.09.067 0 .045-.044.045-.112v-.023a1.087 1.087 0 0 0-.068-.157h.18l.067-.067v-.067h.09c.023-.045.023-.068.023-.09.067 0 .045-.067.045-.135-.068 0-.045-.067-.045-.112l.112-.113c.045-.067.09-.112.113-.157l.067-.067h.09v.112c0 .023-.023.045-.045.068h.068c0-.068.044-.068.112-.068v-.044c.113 0 .09-.18.09-.292-.067 0-.045-.045.023-.045v.09h.112c.045-.044.09-.067.113-.09v-.067c.134 0 .044-.224.18-.224 0 .067.067 0 .112 0a.37.37 0 0 0 .044-.113c.09 0 .023-.067-.044-.067v-.224a.37.37 0 0 1 .112-.045v.202h.113v-.09c.044-.022.067-.022.09-.022.022-.045.022-.09.022-.113h.225c.022-.112.044-.224.067-.314.044 0 .067-.022 0-.022 0 0-.023-.09-.023 0h-.067c0-.045-.09-.113.023-.113l.067-.067v-.113c.044 0 .112-.134.112-.044h.045c0 .067.067 0 .112 0 0-.09.068 0 .113 0v.112c.09 0 0 .067 0 .113 0 .022-.023.044-.045.067.09 0 .18.022.27.045v-.045c.112 0 .045-.157.045-.225-.023-.022-.068-.022-.113-.022v-.09c-.023-.023-.045-.023-.09-.023a.37.37 0 0 0 .045-.112.37.37 0 0 1 .112-.045c0-.09.157-.067.225-.067.022-.045.022-.09.022-.112.068 0 .045-.113.045-.18a.322.322 0 0 0-.157-.045v-.067c.067 0 .044-.045.044-.09.045-.023.09-.023.113-.023v-.112c.045 0 .09 0 .112.023 0 .067.068.044.113.044 0-.112.134-.044.18-.044.044 0 .067.022.09.044 0 .067.18.045.247.045v-.113h-.068c0-.09-.09-.067-.09-.202.045-.023.068-.023.09-.023.023-.044.023-.067.023-.09.09 0 0-.09.112-.09l.113-.112v-.09c.022-.022.044-.044.044-.067l.068-.067c.09 0-.023-.113-.023-.157a.17.17 0 0 0-.112-.045c-.068 0-.045-.067-.045-.112.067-.023.112-.023.157-.023 0-.045.023-.067.023 0h.09c.022-.045.022-.09.022-.113h.113a.37.37 0 0 0 .044-.112c0-.023-.022-.045-.044-.067h-.068a1.087 1.087 0 0 0-.067-.157.273.273 0 0 0-.112-.113.273.273 0 0 0-.113-.112c0-.023-.022-.045-.044-.068h-.068a.431.431 0 0 0-.044-.18c.067 0 .044-.044.044-.09 0-.022-.022-.044-.044-.067-.068-.022-.157-.044-.247-.067v-.09c-.09-.022-.203-.022-.315-.022V23.6c.045 0 .068 0 .09.023v-.18c-.022-.022-.044-.022-.09-.022 0-.068 0-.135-.022-.203-.09-.022-.225-.044-.225.09h-.09a.36.36 0 0 0-.09-.157h-.09c0-.045 0-.09-.022-.113a.273.273 0 0 0-.112-.112c-.023-.045-.045-.09-.09-.113.067 0 .022-.067.112-.067 0-.09 0-.18-.022-.27-.113-.044-.157-.112-.315-.112 0-.045 0-.09-.022-.134h-.225a1.087 1.087 0 0 0-.067-.158c-.067 0-.044-.09-.044-.134-.045 0-.113 0-.18.023-.023 0-.045.022-.09.044 0-.09-.09-.067-.18-.067 0-.09-.134-.113-.134-.202-.068 0-.045-.113-.045-.18-.112 0 .023-.18-.157-.18 0-.045 0-.067-.023-.09-.022-.022-.044-.022-.09-.022 0-.045 0-.09-.022-.113-.067 0-.045-.067-.045-.112a.322.322 0 0 0-.157-.045c0 .023 0 .045-.023.09-.112 0-.067-.292-.112-.382a.322.322 0 0 0-.157-.044h-.023c-.134-.023-.27-.023-.427-.023v-.157c.023-.023.045-.045.045-.067.067 0 .045-.09.045-.157-.023-.023-.045-.023-.09-.023 0-.045 0-.067-.023-.09-.044 0 .135-.247-.09-.247-.022-.022-.044-.045-.067-.045v.158c.09 0 .045.18.045.247h-.067c.022.044.022.09.022.157h-.067a.175.175 0 0 0-.045-.113c.023-.022.045-.044.045-.067a.316.316 0 0 0-.067-.09c-.068-.022-.135-.022-.203-.022 0-.068 0-.113-.022-.158 0-.022-.023-.044-.045-.067-.067 0-.045-.112-.045-.18.113 0-.022-.157-.022-.157h-.09v.113H8.33c0-.068-.023-.113-.045-.157.045 0 .067-.023 0-.023v-.09c-.045-.022-.09-.022-.135-.022 0-.068-.044-.045-.112-.045-.023 0-.045.022-.067.045 0-.068-.023-.135-.045-.203.045 0 .067-.022 0-.022a1.087 1.087 0 0 0-.067-.158h.067v-.067c-.09 0 0-.067-.112-.067 0-.067-.045-.045-.113-.045v.068c-.023-.023-.067-.023-.112-.023l-.068-.27c0-.022-.022-.044-.044-.067h-.068v.18c-.022 0-.067.022-.112.044a1.087 1.087 0 0 0-.067-.157h-.113c-.022.023-.067.045-.112.068v-.068c0-.022-.023-.044-.045-.067-.067 0-.045-.067-.045-.112h-.067c0-.068-.067-.113-.134-.113 0-.067-.203-.18-.27-.18v-.09c0-.022-.023-.022-.045-.022h.09c.023-.045.023-.067.023-.09a.4.4 0 0 1 .157.112v.113c.067 0 .067.023.067.09.068 0 .135 0 .18.022 0 .068.112.045.157.045v-.224c-.067 0-.045-.068-.067-.113h-.202c0-.044 0-.067-.068-.067 0-.067-.112-.045-.18-.045 0 .135-.067-.112-.067-.112 0-.023-.022-.045-.044-.067h-.113a.273.273 0 0 0-.112-.113c-.023-.045-.045-.09-.068-.112a.273.273 0 0 0-.112-.113c-.023-.067-.045-.134-.067-.18a.17.17 0 0 0-.113-.044c0-.068-.022-.068-.09-.068 0-.044 0-.067-.022-.09 0-.022-.023-.022-.045-.022.09 0 .18-.023.18.067h.112c0 .09.09 0 .045-.112-.09 0 0-.067-.113-.067a1.087 1.087 0 0 0-.067-.158h-.09c0-.044 0-.09-.022-.112-.045-.023-.09-.023-.157-.023a.37.37 0 0 0 .044-.112.365.365 0 0 0-.157-.09c-.023 0-.045.023-.067.045 0-.068-.023-.113-.045-.158.023-.022.045-.044.045-.067a.42.42 0 0 0-.18-.044c0 .067-.023.134-.045.202.068 0 .045.045.045.112-.112 0-.247 0-.381.023v.202h-.113a.175.175 0 0 0-.045-.112h-.067c0-.09-.067 0-.134 0 0-.09-.023-.18-.045-.27a.17.17 0 0 0-.112-.044c-.023 0-.045.022-.068.044-.067 0-.044-.27-.044-.337-.023-.022-.068-.022-.113-.022-.022-.023-.045-.045-.067-.045 0-.09-.135-.067-.202-.067a.36.36 0 0 0-.09-.157h-.113a.175.175 0 0 0-.044-.113h-.068v-.067c0-.045-.022-.067-.044-.09.044 0 .067-.022 0-.022 0-.09-.113-.068-.18-.068 0-.067-.113-.112-.113-.224h-.09c0-.157-.134-.113-.134-.225-.023-.044-.045-.09-.067-.112-.068 0-.068-.112-.157-.112a1.087 1.087 0 0 0-.068-.158h-.09c0-.044 0-.09-.022-.112 0-.023-.023-.045-.045-.067-.09 0 0-.068-.112-.068v-.09c-.023-.022-.068-.022-.113-.022v-.113h-.067a.273.273 0 0 0-.112-.112c0-.067-.068-.18-.158-.18 0-.044 0-.09-.022-.112-.067 0-.067-.113-.157-.113a1.087 1.087 0 0 0-.068-.157.273.273 0 0 0-.112-.112c0-.023-.023-.045-.045-.068h-.134V13h-.09v-.224c.067 0 .045-.113.045-.18-.09 0-.045-.135-.068-.203 0-.022-.022-.044-.044-.067h.067l.27.067c0-.022-.023-.022-.045-.022 0-.067 0-.135-.023-.18h.203a.37.37 0 0 0 .044-.112c-.067 0-.067-.113-.067-.158-.067 0-.045-.067-.045-.112.113 0 .045-.112.045-.18-.023-.044-.045-.09-.09-.112H1.55c0-.113-.292-.067-.337-.067v-.203c.023-.022.045-.044.045-.067.09 0 .067-.113.067-.18.067-.022.112-.044.157-.044a.37.37 0 0 0 .045-.113c-.023-.023-.045-.023-.09-.023 0-.067-.045-.044-.113-.044 0-.045 0-.067-.067-.067a.175.175 0 0 0-.045-.113l.045-.045c.045 0 .09.023.113.045 0-.067.067-.023.067-.112h.18v-.09c.09 0-.023-.068-.023-.113-.067 0-.045-.09-.045-.134.068 0 .135 0 .18.022v-.067c.045-.023.067-.023.09-.023v-.112h-.09v-.337h.09c.022-.112.022-.202.022-.292h.203c.022-.067.022-.112.022-.157.068 0 .045-.09.045-.157.09 0 .067-.18.067-.247h.18v-.112c.09 0 .09-.135.09-.225h.067v.068c.09-.023.157-.023.225-.023l.067-.337h.202c.023-.045.023-.09.023-.112.112 0 .067-.203.044-.27h-.224v.09c0 .022-.023.045-.045.067-.044 0-.09 0-.134.023v.044c-.067 0-.113.18-.113.27-.022 0-.044 0-.09.023v.09h-.067c0-.09-.09-.113-.18-.113-.022-.023-.044-.045-.067-.045 0-.067-.022-.067-.09-.067 0-.045 0-.067-.022-.09-.09-.044-.203-.09-.203-.202.09 0 0-.067 0-.113.068-.022.113-.044.158-.044a1.087 1.087 0 0 0-.068-.157c.045-.023.09-.023.135-.023v-.09c.09 0 .045-.292.045-.36 0-.022-.023-.044-.045-.067a.37.37 0 0 1 .112-.044c0-.09.203-.068.27-.068V6.8h-.09v-.112c.023-.022.045-.045.045-.067h.067c.112.022.224.045.314.067.023.023.023.045.023.09h.157v-.09c-.067 0-.045-.067-.045-.112.023-.023.045-.045.045-.068-.067 0-.045-.067-.067-.112h-.225v-.067h-.09c0-.068 0-.113-.022-.157h.18v-.113c.022-.015.044-.037.044-.06h.068l.067-.067v-.157c.067-.023.112-.045.157-.068V5.64c-.067 0-.045-.112.023-.112 0-.068.044-.045.09-.045.022-.067.022-.134.022-.18.067 0 .045-.044.045-.09.044-.022.09-.022.112-.022 0-.113.18.022.18-.113.067 0 .09-.09.09-.157-.068 0-.045-.134.022-.134 0-.068.045-.045.113-.045.022-.09.044-.157.067-.224h.113c0-.068.044-.068.112-.068v-.404a.37.37 0 0 1 .113-.044v-.068c.067 0 .112-.112.112-.202.045-.023.067-.023.09-.023.022-.044.022-.09.022-.112.09 0 .113-.18.113-.292h.157c.023-.044.023-.067.023-.09.022-.022.044-.044.044-.067.135 0-.044-.067.045-.067.023-.023.045-.045.067-.045l.068-.067c.022-.067.044-.112.044-.157l.067-.067c.045 0 .09 0 .113.022 0 .067.18.067.18-.022.044-.068.09-.113.112-.158.023-.022.045-.044.045-.067.067 0 .067-.067.067-.112.023-.023.045-.045.045-.068a.37.37 0 0 1 .112-.044c.023-.023.045-.045.067-.045v-.067c.068 0 .023-.067.113-.067v-.292c.067 0 .045-.045.045-.112a.37.37 0 0 1 .112-.045c0-.067.045-.067.113-.067.022-.068.022-.113.022-.158.067 0 .045-.044.045-.112h.067c0-.135.224 0 .224-.135h.09c.023-.022.045-.044.068-.044v-.067a.316.316 0 0 1 .067-.09C6.804.97 6.849.97 6.894.97c.023-.045.023-.067.023-.09.044-.022.09-.022.112-.022v-.09c.045-.023.09-.023.113-.023 0-.067.044-.045.09-.045h.022c.09-.022.157-.044.224-.044v.09c.045 0 .09 0 .113.022 0 .068.134.09.224.09V.747h.113c.022-.023.044-.045.067-.045 0-.112.202-.067.27-.067V.59c-.068 0 .022-.112.022-.18.023-.022.045-.044.045-.067.067 0 .067-.045.067-.112h.27c.022-.023.044-.045.067-.045V.119a.37.37 0 0 1 .112-.045c0-.134.741-.045.831-.045.023 0 .045.023.068.045 0 .067.112.045.18.067 0 .068.067.045.112.045.044.023.09.045.112.067.023 0 .045.023.068.045 0 .067.112.067.157.067.022 0 .044.023.067.045 0 .067.067.044.112.067.045.023.09.045.113.067.023 0 .045.023.067.045v.067h.113a.4.4 0 0 1 .157.113v.09c.09 0 .18-.023.18.067h.067a.316.316 0 0 1 .09.067c.022.023.022.045.022.09.068 0 .113 0 .157.023 0 .067.113.044.113.157.045 0 .067 0 .067.067h.09c0 .09.135 0 .135.157.044 0 .067 0 .067.067h.09v.068h.112c.023.044.023.09.023.157h.09c0-.045.022-.067.022 0 .045.022.09.067.113.112.022.023.044.045.044.068h.113v.067h.112c.023.022.023.067.023.112h.09c.022.023.022.045.022.09.045 0 .068 0 .09.023.023.022.023.044.023.09.045 0 .09-.09.09.022h.067c0 .067.067.023.067.157h.113a.316.316 0 0 1 .09.068c.022.022.022.044.022.09a.36.36 0 0 1 .157.09c.023.022.023.044.023.09h.09c.022.022.022.066.022.112.023.022.045.044.045.067h.067c0 .067.113.045.157.067a.491.491 0 0 1 .18.113v.09c.045 0 .09 0 .113.022.044.023.09.067.112.113 0 .067.067.044.113.067 0 .09.18.067.18.202.067 0 .112-.022.112.068h.09a.435.435 0 0 1 .022.18c.09 0 .068.09.068.156h.224c0-.112.112.045.157.068.045.022.09.044.113.067a.36.36 0 0 1 .157.09c.022.022.022.067.022.112.045 0 .09 0 .113.023.044.022.09.067.112.112v.27h.068v.067h.044c0 .203.472-.112.472.157.044 0 .067 0 .09.023.022.045.022.09.022.157.023.023.045.045.045.067.112 0 .067.27.067.337.045.023.09.067.112.113h.113v.067h.09c.022.023.022.067.022.112h.18V5.89c.023-.022.045-.044.045-.067.044 0 .09 0 .112.023v.09s.09.022 0 .022v.09c.045 0 .068 0 .068.067h.112c0-.067.045-.045.113-.045 0 .068.067.045.112.045v-.067c.045 0 .09 0 .112.022v.27c.068 0 .068.067.068.135.112-.023.224-.023.314-.023v.247c0 .023-.023.045-.045.09.09 0 .18 0 .27.022v-.067c.023.023.023.045.023.067.067.045.134.09.18.158.022.022.044.044.044.067.067 0 .067.022.067.09.045 0 .09 0 .113.022 0 .068.157.045.224.068a.17.17 0 0 1 .045.112h.044c.068.135.068.157.315.157a.316.316 0 0 1 .09.067c.022.023.022.045.022.09.045 0 .067 0 .09.023.023.023.023.045.023.09.067 0 .044.067.044.134l.27.068v.112c0 .023-.023.045-.045.09-.067 0-.044.067-.044.112.022.023.044.045.044.068.067 0 .067.044.067.112h.068a.316.316 0 0 1 .09.067c.022 0 .044.023.067.045 0-.09.112-.067.18-.067v.067c.022.023.044.045.044.067.045-.022.09-.022.113-.022v-.09h.067c.023.045.045.09.045.157.067 0 .044.067.044.135h.068c.022.022.022.044.022.09h.09c.023.067.023.134.023.224.067 0 .044.044.044.112.068 0 .068.045.068.113h.202c.023-.045.023-.09.023-.113h.09v.247c-.135 0 .09.068-.045.068a.17.17 0 0 1 .044.112h.068c0 .067.134.045.134-.023h.113v.068c.112.022.224.044.314.067.023.045.023.09.023.157.067.023.112.045.157.067.022 0 .044.023.067.045.045.023.09.045.112.067l.068.27c.022.022.044.044.044.067.113 0 .045.045.045.113-.067 0-.045.067-.045.112.068 0 .068.045.068.113.09 0 .112.134.202.134.023.023.023.045.023.09h.112v-.045c.112 0 .112-.157.112.225.068 0 .068.044.068.112.022.023.044.045.044.067h-.067c0 .068-.067.045-.112.045v.113h-.068c0-.068-.022-.068-.09-.068 0-.044 0-.067-.022-.09-.023-.022-.045-.022-.09-.022 0-.045 0-.067-.023-.09-.022-.023-.044-.023-.09-.023 0-.044 0-.067-.022-.09h-.157v.113c-.067 0-.045.202-.045.27.067 0 .225.022.225-.068h.112v.068c.067.022.113.044.157.067 0 .067.067.044.113.067v.09c.044 0 .067 0 .067.067.09 0 .067.09.067.157.045 0 .067 0 .09.023.023 0 .045.023.067.045 0 .067.225.044.292.044v-.044c.09 0-.023-.18-.023-.27-.022-.023-.067-.023-.112-.023 0-.067-.045-.044-.113-.044 0-.068-.022-.068-.09-.068v-.224c.068.023.113.045.158.067.044.023.09.068.112.113.045.022.09.044.113.067 0 .067.067.023.067.157h.18v-.18c.067 0 .113 0 .157.023v.09c0 .023-.023.045-.044.067.022.023.044.045.044.067.09 0 .067.113 0 .113-.023.067-.044.134-.068.202h.292v-.09h.067a.17.17 0 0 1 .045.113h.113v.18h.067c.09.022.157.067.224.112v.202c.067 0 .067-.09.067-.157.113 0 .225.023.337.045v-.09c.068 0 .045-.067.045-.134-.067 0-.045-.068-.045-.113h-.067v-.112l.067-.068h.292v-.09h.09v.113c.044-.023.09-.023.134-.023 0-.044.135-.112.045-.112 0-.067-.045-.045-.112-.045 0 .067-.068.045-.113.045v-.113a.316.316 0 0 1 .067-.09h.113v-.067c.112 0-.023-.134.112-.134l.113-.113v-.09c.067 0 .044-.044.044-.112.18 0-.044-.36.135-.36 0-.112.247-.067.314-.067.023-.067.023-.112.023-.157.067 0 .112 0 .112-.067.09 0 0-.113.113-.113v-.157c.022-.022.044-.044.044-.067.09 0 .068-.157.068-.224l.067-.068h.09c.022-.044.022-.09.022-.112h.158c0-.067.044-.045.112-.045 0-.067.112-.045.18-.045v.158a.37.37 0 0 1 .112-.045v-.135c.067 0 .045-.044.045-.112-.067 0-.045-.067-.045-.113.067 0 .067-.044.067-.112l.203-.067c.022-.045.022-.068.022-.09.045-.023.068-.023.09-.023v-.09c.113-.022.225-.022.337-.022V9.01h-.09c-.022-.022-.044-.044-.067-.044v-.113h-.157c-.023 0-.045.023-.067.045v-.113c.067 0 .044-.044.044-.09.09-.022.157-.022.225-.022.022-.045.022-.09.022-.113h.09c.067.135.067.068.067.225 0 .022-.022.044-.044.067h.224c0-.09.09 0 .157 0 0-.067.045-.067.113-.067.022-.113.022-.225.022-.337-.044-.09-.247-.09-.247.045-.067 0-.157-.045-.157-.113.068 0 .068-.09.068-.157.134 0-.045-.067.044-.067V8c.067 0 .067-.045.067-.113.045-.023.09-.023.113-.023v-.09c.023-.022.045-.044.045-.067h.067a.316.316 0 0 0 .09-.067c.022-.045.022-.067.022-.09.023-.022.045-.044.045-.067.067 0 .067-.09.067-.157.113-.023.203-.023.292-.023v-.09c.112 0-.045-.202.112-.202 0-.09.113 0 .113-.112.09 0 .112-.135.112-.225.09 0 0-.067 0-.112.068 0 .068-.113.18-.113v-.067c.067 0 .045-.045.045-.09h.067v-.067c.067-.023.112-.045.157-.067v-.113c.067 0 .067-.045.067-.112.045-.068.09-.113.113-.158.067 0 .022-.067.112-.067a.316.316 0 0 0 .09-.067c.023-.045.023-.067.023-.09.067 0 .067-.045.067-.112.023-.023.045-.045.045-.068.067 0 .067-.09.067-.157.068-.022.134-.022.202-.022.023-.045.023-.068.023-.09h.224v-.113c.09 0 .045-.224.045-.291.068 0 .068-.045.068-.113h.066v-.067c.068 0 .023-.067.158-.067.022-.023.044-.045.067-.045.022-.067.045-.113.045-.157.067-.023.18 0 .18-.09H32c.024-.067.046-.113.046-.157.067 0 .044-.09.044-.157-.022-.023-.044-.023-.09-.023a.37.37 0 0 0 .045-.112c.068 0 .068-.045.068-.113.067 0 .112-.023.112.067h.09v.068c.044-.023.09-.023.134-.023v-.09h-.112c0-.09.022-.134-.068-.134v-.068c.068-.022.113-.044.158-.044 0 .067.09.044.134.044a.355.355 0 0 0 .045-.112h-.068c0-.067-.044-.023-.044.022h-.067c.022-.067.022-.134.022-.18l.202-.067c.023-.044.023-.112.09-.112v-.09c.045-.022.068-.022.09-.022.023-.023.045-.045.067-.045l.068-.067c0-.113.113.044.113.112.022.023.044.045.044.067.067 0 0 .09 0 .157-.067 0-.044.068-.067.113-.09 0-.18 0-.27.023 0 0-.045.404-.112.404v.157h.067c0-.09.134-.067.202-.067.023-.068.023-.113.023-.158.022-.022.044-.044.044-.067l.068-.067c.067 0 .044-.045.044-.113a.37.37 0 0 1 .113-.044c.022-.023.044-.045.067-.045V3.15c.067 0 .023-.067.113-.067.022-.023.044-.045.067-.045v.112h.09c.022-.044.022-.09.022-.112l.337-.067v-.157c.023-.023.045-.045.045-.068.022-.022.044-.044.044-.067h.068c.022-.09.044-.157.067-.224v-.045c0-.112-.112-.045-.18-.045.023-.044.045-.09.068-.112.022-.023.044-.045.044-.067.067 0 .067-.068.067-.113.068 0 .09-.134.27-.045 0 .045-.023.09-.045.158-.067 0-.044.157-.044.224h.112c0-.067.045-.067.113-.067 0-.09.112-.068.112-.203.045-.022.067-.022.09-.022.023-.045.023-.067.023-.09h.09c.022.023.022.045.022.09h.067v.224h.113a.37.37 0 0 0 .044-.112c.068 0 .068-.068.068-.113h.112c0-.067 0-.112-.022-.157h-.113c0 .067-.067.045-.112.045.022-.045.022-.09.022-.113.023-.022.045-.044.045-.067-.18 0 .157-.337-.224-.337 0 .045 0 .113-.023.18-.045.022-.09.045-.157.067v.09c-.067 0-.067.18-.067.247-.045 0-.09.023-.158.045v-.09c0-.045-.022-.067-.044-.09.09 0 .112-.157.112-.27.067-.022.113-.044.157-.067l.068-.202c.067-.023.112-.023.157-.023.022-.067.022-.112.022-.157.046-.023.068-.023.09-.023.023-.022.045-.044.067-.044a.17.17 0 0 1 .045.112v.023c0 .09-.09.044.067.112v.113c.068 0 .135.022.18.044v.068c.045 0 .09.022.113.044v.068c.044 0 .112.09.112-.023h.067a.649.649 0 0 0 .045-.202c.045 0 .067-.023 0-.023v-.09c.023-.022.045-.045.045-.067h.067c0 .09.067.022.067-.045.045-.022.068-.022.09-.022.023-.045.023-.09.023-.113a.37.37 0 0 1 .112-.045v.09h.09c.023-.044.023-.09.023-.112a.37.37 0 0 1 .112-.045c0 .067 0 .135-.023.225 0 .022-.022.044-.044.067h-.067v.067c-.113 0-.045.225-.203.225 0 .067 0 .134-.022.202h.134v.067c.09 0 .113.135.113.225h.112c0-.045.224-.405-.067-.405 0-.09-.023-.157-.045-.224l.113-.112c.134 0 .27 0 .381.022l.067.202c-.067 0-.044.158-.044.225.067 0 .112 0 .157.022v-.112c0-.023-.023-.045-.045-.067.09-.023.157-.045.225-.068 0 0 .067-.134.067-.044l.27.067V1.51c.067 0 .067-.045.067-.113.09-.022.157-.022.224-.022v-.09c.045-.023.09-.023.113-.023 0-.09.157-.045.224-.045v.068c.067 0 .045.09.045.157h.134c.045.022.09.044.113.067 0 .09.247.113.337.113v.09c.09 0 .157 0 .224.022 0 .09.18.067.18.202.044 0 .067 0 .09.023.022.023.022.067.022.112.09 0 .157.023.225.045.022-.023.044-.045.067-.045 0 .068.112.068.157.068v.09c.09 0 .112.157.112.224.046 0 .09 0 .113.023 0 .067.067.044.112.044 0 .09.135.045.18.067.023 0 .045.023.067.045 0 .067.158.045.225.067a.17.17 0 0 1 .044.113h.158c.022.022.022.067.022.112.09.023.157.045.225.068.022 0 .044.022.067.044a.316.316 0 0 1 .09.068c0 .067.067.044.112.044.023.023.023.067.023.113h.112v.112h.09l.135.067c0 .068.067.045.112.068 0 .067.067.044.113.044 0 .068.067.045.112.068v.112c.045 0 .09.023.113.045 0 .09.067 0 .067.112.067 0 .112.09.112.157.068 0 .113-.022.113.068h.112c0 .067.113.044.157.067l.135.067v.113c.134 0 .045.134.045.224-.068 0-.045.112-.045.157.023 0 .134.067.045.067v.113c-.068 0-.045.067-.045.112h.09c.022-.044.022-.09.022-.112.068-.023.135-.023.203-.023v.247c-.068 0-.045.067-.045.113.045 0 .09.022.135.044.044-.067.067-.112.09-.157.045.023.09.045.112.067a.617.617 0 0 1 .023.203c.044 0 .09 0 .112.022h.315c.022.045.022.09.022.158h.067a.17.17 0 0 1 .045.112c.067 0 .067.023.067.113.09 0 .113 0 .113.112 0 0 .09.023 0 .023 0 .09.224.067.314.112v.09c.044 0 .09 0 .134.023v.044c.09 0 0 .067 0 .067h.068v.09h.113v.09a.929.929 0 0 1 .201.113c.023.022.023.044.023.09.067 0 .113-.023.113.067.044.022.09.067.112.112.023.023.045.045.045.068.067 0 .067.022.067.09 0 0 .09.022 0 .022v.09c.045 0 .067 0 .067.067.09 0 .113 0 .113.113.044 0 .067 0 .09.022.022.023.022.045.022.09.045 0 .067 0 .09.023v.112h.067v.09c.045 0 .09 0 .113.023 0 .112.067 0 .067 0v.224c.314 0 .157.157.157.45-.022.022-.067.044-.112.067v.09c-.068 0-.045.067-.045.112-.023 0-.067 0-.112.023 0 .044 0 .09-.023.157-.067 0-.045.067-.045.112.068 0 .045.045.045.113a.17.17 0 0 0-.09.022c0 .068 0 .135-.023.225-.044 0-.134.112 0 .112.023 0 .046.023.068.045 0-.067.09-.045.157-.045v.113h.135c.067 0 .067-.068.067-.135.067 0 .113 0 .157.023v.157s-.022 0-.044.023h.09c.022 0 .044.022.067.044 0-.067.044-.044.112-.044v.112c-.067 0 0 .067 0 .112.045 0 .09.023.113.045 0 .023.291.045.291.292-.022.044-.044.09-.067.157-.09 0-.045.134.023.134v-.067c.067-.022.112-.044.157-.067v.112c0 .023-.023.045-.045.068.067 0 .135.022.203.044v.068c-.068 0-.045.067-.045.112.045 0 .09.023.112.045 0 0-.022 0-.044.022v.09c.023.023.044.045.044.09.068 0 .068.045.068.113.022.022.044.044.044.09h.068c0-.068.044-.045.112-.045 0 .067.067.044.113.044v.135c-.068 0-.068.112-.068.157-.022.045-.044.09-.067.157 0 .023-.023.045-.045.09-.022.023-.044.067-.067.113 0 .022-.023.044-.045.09-.022.022-.044.067-.067.112 0 .022-.022.045-.044.067-.023.045-.045.09-.068.157-.022 0-.044 0-.09.023 0 .045 0 .112-.067.112 0 .045-.022.09-.045.157h-.134c0-.112-.067.023-.113.023v.09c-.067 0-.044.067-.067.112v.225c-.022 0-.044 0-.09.022 0 .023 0 .045-.022.09h-.113c-.022-.022-.044-.044-.09-.044 0 .112 0 .224-.022.337 0 .022-.023.044-.045.067-.022.022-.045.067-.067.112l-.113.113c-.067 0-.044.067-.067.112 0 .023-.022.045-.045.067-.022.023-.067.045-.112.068-.023.044-.045.09-.067.157 0 .022-.023.045-.045.067-.023 0-.067.023-.112.045 0 .067-.068.044-.113.067-.022.067-.067.135-.112.224-.023.045-.045.09-.068.158-.022 0-.067 0-.112.022v.09h-.157c.022 0 .044 0 .044.023v.09c-.044 0-.112 0-.18.022v.113c-.067 0-.134.022-.202.044v.18c.068 0 .135.112 0 .112 0 .023 0 .068-.022.113l-.113.112c-.022.045-.044.09-.067.158-.09 0-.18 0-.27.022v.113c-.022.022-.044.044-.067.09-.067 0-.045.067-.045.112 0 0 .09.023 0 .023-.022.022-.044.067-.067.112h-.112c.022-.045.022-.09.022-.112.023-.023.045-.045.045-.068.09 0 .067-.112.045-.157h-.157c0 .067-.135.09-.135.203-.023 0-.045 0-.09.022v.382h-.067v.067h-.157l-.068.067c-.022.135-.044.292-.067.45-.067 0-.044.067-.044.112a.17.17 0 0 0-.113-.045v-.067c.067 0 .067-.045.067-.112.18 0-.134-.337-.134 0-.045.022-.09.044-.157.067 0 .067-.09.045-.135.045v.112c-.067 0-.044.113-.044.18.067 0 .067.044.067.112.067 0 0 .09 0 .157h-.113c0-.067-.067-.044-.134-.044a.308.308 0 0 1-.09.067c0 .023 0 .045-.023.09-.067 0-.044.067-.044.112 0 .023-.023.045-.045.068h-.067l-.068.067c-.022 0-.044.022-.067.045 0 .067-.112.044-.157.044-.023-.022-.045-.044-.067-.044v.067c-.113 0-.09.291-.09.404.134 0 .09.247.09.337-.023.022-.045.067-.09.112h-.113c0 .068-.067.045-.112.045l-.067.067c0 .09 0 .18-.023.27-.112 0-.247 0-.381.022 0 .068-.113.09-.158.113v.381h-.067a.66.66 0 0 0-.044-.224c.09 0 .044-.157.044-.224h.113l.067-.068v-.09c.045 0 .067-.022 0-.022 0-.067 0-.135-.023-.18-.067 0-.134 0-.202.023 0 .067-.09.044-.135.067v.09c-.022 0-.067 0-.112.022-.023 0-.045.023-.067.045v.067c-.023.045-.068.09-.113.158 0 .022-.022.044-.044.067-.068 0 0 .067 0 .112-.023.023-.045.045-.068.09-.067 0-.044.113-.044.18.134 0 .224.022.157.18 0 .022-.023.044-.045.067-.067 0-.044.27-.044.337-.023-.023-.068-.023-.113-.023 0-.09-.045.023-.112.023-.09.022-.18.044-.292.067 0 .023 0 .045-.023.09-.044 0-.112 0-.112.067-.067 0-.045.067-.045.113h-.067c0 .067-.113.067-.157.067-.023.045-.045.09-.067.157h-.068a.308.308 0 0 1-.09.067c0 .023 0 .068-.022.113 0 .022-.023.044-.045.067.067 0 .067.023.067.09.113.112.045.045.045.224 0 .023-.023.045-.045.068h-.112l-.067.067v.09h-.068v.202c-.067 0-.044.112-.044.157-.068 0-.045.113-.068.157h-.112v-.157a.42.42 0 0 0-.18-.045c0 .068-.067.045-.112.045v-.045c-.09 0-.09.18-.09.27.067 0 .045.045.045.113-.09 0-.045.27-.068.36-.022 0-.067.022-.112.044v-.113h-.113c-.022.023-.044.045-.09.067 0 .023 0 .068-.022.113-.067 0-.045.067-.045.112.067 0 .045.045.045.113 0 .023-.023.045-.045.09-.09 0-.18 0-.291.022-.023 0-.045.023-.068.045-.022 0-.044.023-.09.045a.37.37 0 0 0 .045-.113c.09 0 .067-.134.067-.202.023-.023.045-.045.045-.067a.17.17 0 0 0-.112-.045l-.113.112v.09l-.067.135c-.067 0-.045.067-.045.112.045 0 .09.023.113.045 0 0-.023 0-.045.023 0 .044 0 .09-.023.157l-.202.067v.09h-.067c0 .022 0 .067-.023.112h-.112v.068c-.068 0-.09.112-.113.157-.067 0-.044.247-.044.314-.023.045-.045.09-.068.157-.022 0-.067.023-.112.045v.067l-.203.067c0-.067 0-.134-.022-.18h-.27c0 .068-.067.045-.112.068v.157h.09c.022-.023.022-.045.022-.045v.09c.023.023.045.045.045.09.09 0 .067.157.067.224.067.045.135.09.18.158.067 0 .112.09.112.157h.113c0-.068.112-.09.112-.225h.113c0-.09.18-.112.291-.112v.067c.158.023.292.045.427.067.023.045.023.113-.044.113.044.022.09.044.112.09 0-.113.224.09.224.202h.068v.09c.044 0 .09 0 .112.022 0 .068.067.023.067.158.068.022.113.044.158.067v.09c.067 0 .067.067.067.134.044 0 .09.023.112.045a.316.316 0 0 1 .09.067c0 .09.09-.022.09.113.023.022.045.044.045.067.067 0 .067.023.067.09.045 0 .067 0 .09.022.022.023.022.045.022.09h.09a.435.435 0 0 1 .023.18c.022.023.045.045.045.067.044 0 .09.023.112.045v.067c.045.023.09.045.112.067v.09c.045 0 .068 0 .068.068.112 0-.045.067.044.067.023 0 .045.022.068.044.044.023.09.045.112.068.023 0 .045.022.067.044a.17.17 0 0 1 .045.113c.045.022.09.045.113.067v.113c.067 0 .067.044.067.112h.202c.023.045.023.09.023.157.022.023.044.045.044.067-.022.045-.044.113-.067.18h.067c.023.023.023.045.023.09.023.023.045.045.045.067h.067c.045 0 .067.023.09.045 0-.045.022-.067.022 0 .068 0 .113-.023.113.067.067 0 .112-.022.112.068.023.022.045.044.045.067.067 0 .067.022.067.09.045 0 .068 0 .09.022.023.023.023.045.023.09.112 0 .067.292.067.36.045 0 .09.022.112.044v.068h.09c.023 0 .045.022.068.044 0-.157.067.135.067.18.045.023.09.067.112.112h.09c0 .068.113.045.18.045v.135c-.067 0 .023.09.023.18.022.022.044.044.044.09.045 0 .067 0 .067.066h.09c0 .113.135-.022.135.113.022.023.045.045.045.067.09 0 .18.023.27.045.022.022.022.067.022.112.022.023.044.045.044.068h-.112v.112c.09 0 .067.09.067.157.045 0 .09 0 .113.023.044.022.09.067.112.112.023 0 .045.023.067.045h.045c.09 0 .067.09.067.157.045 0 .068 0 .09.023v.044c-.067 0 .023.09.023.18.044 0 .09.023.112.045v.18c.045 0 .09.022.113.044.022-.023.044-.045.067-.045a.316.316 0 0 1 .09.068v-.113h.067v.09c.067 0 .113 0 .157.023l.135.27c.044.022.09.067.112.112.068.022.135.044.18.067v.157c.045 0 .067 0 .09.023.022.022.022.044.022.09.045 0 .09 0 .113.022.045.044.067.09.09.157h.067c0 .09.067-.022.067.158.045 0 .068 0 .09.022.045.067.09.135.135.225h.067c.045 0 .067.022.09.044.022.045.022.09.022.135.023.022.045.044.045.09.045 0 .09 0 .113.022v.09c.022.023.044.044.044.067h.068c0 .09.067-.023.067.157.044 0 .067 0 .09.023.022.023.022.067.022.113.068 0 .113.09.113.157.044 0 .067 0 .067.067.067.023.112.045.157.067v.09c.045 0 .067 0 .067.067.068 0 .113.09.113.157.045 0 .067 0 .09.023.022.023.022.067.022.113.023.022.045.044.045.067.09 0 .067.09.067.157h.09c.023.023.023.067.023.112.044.023.09.045.112.067 0 .068.067.023.067.158.09 0 .113.134.203.134.022.045.022.09.022.157.045.023.09.068.113.113.067 0 .112.09.112.18.09 0 .113.112.113.202.022.023.045.044.045.067.044 0 .09 0 .112.023.023.045.023.09.023.157h.09c.022.023.022.067.022.112.067.023.113.045.157.068v.09c.045 0 .067 0 .067.067.068 0 .113.09.113.157.023.023.045.045.045.067.067 0 .067.045.067.113.067 0 .067.044.067.112.09 0 .113 0 .113.113.022.022.044.044.044.067.045 0 .09.023.113.045v.067h.067a.316.316 0 0 1 .09.067c.022.09.022.18.022.292a.4.4 0 0 1 .158.112c.022 0 .044.023.067.045v.067c.067 0 .045.09.045.157h-.068c0 .113-.112-.09-.112-.113a.402.402 0 0 0-.113-.156c0-.023-.022-.045-.044-.068h-.068l-.202-.067c0-.044 0-.09-.023-.112h-.112c0-.09-.09-.068-.157-.068v.09c.067 0 .044.09.044.157h-.18c0-.09-.156-.044-.224-.044v-.067l-.202-.068c0-.09-.112-.068-.202-.068v.068c-.068 0-.045.113-.045.18l-.27.067v.09c.023.023.045.045.045.067.067 0 .067.045.067.113.068 0 .113.09.113.157.022.023.044.045.044.067.068 0 .068.023.068.113.022.022.045.044.045.066.09 0 0 .046-.045.046 0-.046 0-.068-.023-.09 0-.023-.023-.045-.045-.067-.022-.045-.044-.09-.067-.113 0-.023-.022-.045-.044-.067-.09 0 0-.067-.113-.067a.273.273 0 0 0-.112-.113v-.112a.316.316 0 0 0-.068-.09h-.09v-.068h-.18v.113h-.112v.157s.09.023 0 .023v.157c.09 0 .157.134.157.224h-.067v-.09c-.023-.022-.045-.022-.09-.022 0 0-.022-.09-.022 0-.068 0-.045.067-.045.112.045 0 .067 0 .067.067.045 0 .09.023.113.045v.113c.044 0 .067 0 .09.022.022.023.022.067.022.113.045 0 .09.022.113.044l-.068-.27c.023-.044.023-.09.023-.134a.37.37 0 0 1 .112-.044c0 .089 0 .18-.022.27.045 0 .09 0 .112.022H46.4c.022.044.022.09.022.157.068 0 .045.112.045.18 0 .022-.023.044-.045.067.045 0 .09.022.113.045 0 .067.023.18-.067.18v-.068c-.023-.045-.045-.09-.068-.112-.067 0-.022-.068-.157-.068 0-.157-.044.045-.044.113.044 0 .067 0 .09.022.022.045.022.09.022.157.067 0 .113.09.113.158h-.068c-.022-.023-.044-.046-.067-.046v-.066c-.023-.045-.067-.068-.112-.09v-.067a.17.17 0 0 0-.113-.045c.023.067.023.134.023.224.022.023.044.044.044.09-.044-.067-.09-.112-.134-.157 0-.023-.023-.045-.045-.067-.112 0 .023-.113-.112-.113v-.09c-.09 0 .022-.09-.157-.09 0-.067.022-.112-.068-.112l-.067-.202c-.023-.023-.045-.023-.09-.023 0-.045 0-.09-.022-.112-.023 0-.045 0-.09.022v.157c.202 0 .044.315.044.18-.067 0-.044.067-.044.113.067 0 .112.09.112.18.067 0 .045.044.045.112h.067c0 .067.113.067.113.202.022.023.044.045.044.067h.067v.068c.045 0 .09.022.113.044v-.067c.045 0 .09 0 .112.023v.112c-.022-.022-.067-.022-.112-.022v.09c.023.022.045.044.045.09.09 0 .067.043.067.134-.023-.023-.045-.023-.067-.023a1.035 1.035 0 0 0-.068-.157c0-.023-.022-.045-.044-.067-.09 0 0-.067-.113-.067l-.067-.203c-.023-.022-.045-.022-.09-.022 0-.068.023-.113-.067-.113v-.09c-.09 0 0-.134-.157-.134-.023-.023-.045-.045-.068-.045 0-.09 0-.18-.022-.247 0-.045-.023-.067-.045-.09h.067c0-.09.023-.134-.067-.134v-.225a.316.316 0 0 0-.067-.09c-.067-.022-.135-.022-.202-.022 0-.09 0-.157-.023-.225 0-.022-.023-.044-.045-.067a.32.32 0 0 0-.067-.09c0 .023-.023.045-.045.09-.067 0-.044.09-.044.135.022.022.044.044.044.09.045 0 .09 0 .113.022 0 .09.067 0 .067.113.067 0 .113.089.113.18.067 0 .044.044.044.112.113 0-.022.045-.067.045 0-.068-.023-.068-.09-.068 0-.044 0-.067-.022-.09-.023-.022-.045-.022-.09-.022v-.09h-.068v.112c.068 0 .068.023.068.09.044 0 .067 0 .09.023.022.022.022.045.022.09.023.022.045.044.045.067 0 .023-.023.045-.045.067-.022-.022-.067-.022-.112-.022 0-.045 0-.068-.023-.09 0 .022-.023.044-.045.09.068 0 .068.022.068.112h.09s-.023 0-.045.023c0 .09.067-.023.067.157.023.022.045.045.045.067h.067v.067c.023.023.045.045.045.09.044 0 .09 0 .112.023v.09c.067 0 .247.36.247.471.045.023.09.067.113.113.067 0 .112.09.112.157.023.022.045.044.045.067.022.023.044.045.044.067h.068v.09a.36.36 0 0 1 .157.09l.067.336-.067-.066c-.067 0-.09-.158-.157-.18 0 .022-.023.045-.045.067.023.023.045.045.045.067.09 0 .067.09.067.158.067 0 .112.09.112.157.045 0 .068 0 .068.067.067 0 .112.067.112.134-.044-.022-.09-.022-.134-.022a1.087 1.087 0 0 0-.068-.157c-.022-.023-.044-.023-.09-.023v-.09h-.067v-.067c-.09 0 .023-.068-.157-.068.023 0 .045 0 .045.023v.203c.067 0 .067.044.067.112.023.023.045.045.045.09h-.157v.202c.044 0 .067 0 .09.023v.09c.044 0 .09 0 .112.022v-.067h.112c.023.045.023.09.023.157.112 0 .067.225.067.292.068 0 .045.045.045.112.067 0 .067.023.067.113.067 0 .045.067.045.134 0 .023-.023.045-.045.09 0-.022 0-.044-.022-.044 0-.023-.023-.046-.045-.068l-.135-.202c0-.023-.022-.045-.044-.067-.023-.045-.045-.09-.068-.113-.022-.022-.044-.022-.09-.022-.022-.023-.044-.046-.067-.046 0-.111-.044.024-.044.068.022.023.044.045.044.068-.022-.023-.067-.023-.112-.023v-.067c-.113 0 .022-.113-.113-.113a1.087 1.087 0 0 0-.067-.157c-.067 0-.022-.067-.157-.067 0-.045 0-.067-.023-.09h-.112c0 .023-.023.067-.045.112.113 0 .068.315.068.382h.09v.067c0 .023-.023.045-.045.067-.045-.022-.09-.022-.157-.022 0-.067.022-.113-.068-.113 0-.09-.09-.067-.157-.067v.09c.023.023.045.045.045.09.045 0 .067 0 .067.067.023.023.045.045.045.067.09 0 .067.09.067.158.067 0 .045.044.045.112.134 0 .247.18.247.337.022.022.044.045.044.067.068 0 .068.045.068.113.022.022.044.044.044.067.068 0 .068.045.068.112-.023-.022-.068-.022-.113-.022 0-.045 0-.068-.023-.09h-.09v.112c.068 0 .023.045-.022.045 0 .067-.067.044-.113.044v.068c-.067 0-.044.067-.044.112.044 0 .067 0 .09.023.022 0 .044.023.067.045h.023c.022-.023.044-.045.044-.068.09-.022.157-.044.225-.044l.067.27c0-.023 0-.045-.023-.045 0-.023-.022-.045-.044-.068-.023 0-.068-.09-.068 0-.067 0-.044.068-.044.113.09 0 .067.112.067.18.023.022.045.044.045.067-.045-.023-.09-.023-.158-.023 0-.067.023-.113-.067-.113a1.105 1.105 0 0 0-.067-.156h-.067c0-.068-.023-.068-.09-.068 0-.044 0-.09-.023-.112-.067 0-.112-.158-.112-.224-.068 0-.045-.045.022-.045 0-.09 0-.18-.022-.247h.067v-.045c.09 0 0-.09 0-.157.112 0 .045-.134.045-.18h-.203c-.022 0-.044.023-.067.045 0 .09-.023.18-.045.292.068 0 .09.09.09.157h-.112c.022.022.022.044.022.067.045.023.09.045.113.067 0 .045 0 .09-.023.157h-.09c0-.067 0-.112-.022-.157 0-.022-.023-.044-.045-.067a1.087 1.087 0 0 0-.067-.157c-.023-.023-.045-.023-.09-.023v-.09c.045 0 .112-.022.112.045 0-.09.045-.247-.067-.247a.273.273 0 0 0-.112-.112c0-.068 0-.113-.023-.157a.486.486 0 0 0-.112-.18c-.068 0-.068-.113-.157-.113a.273.273 0 0 0-.113-.112c0-.067-.09-.045-.157-.045l-.067.067v.158c.067.022.112.044.157.067.022.067.022.134.022.224.045 0 .09.023.113.045v.067a.36.36 0 0 1 .157.09v.067c.045 0 .067 0 .067.067.023.023.045.045.045.068.112 0 .067.202.067.27.09 0 .067.112.067.18.023.022.045.044.045.089h.18v.067c.09 0 .044.157.044.225.045 0 .09 0 .113.022 0 .068.067.022.067.157.135 0-.134.068-.134.113-.068 0-.023-.067-.157-.067l-.068-.203c-.022-.022-.044-.022-.09-.022 0-.045 0-.09-.022-.113-.023-.044-.045-.09-.067-.112 0-.023-.023-.045-.045-.068-.023-.044-.045-.09-.067-.112a.92.92 0 0 0-.113-.202c-.022-.023-.044-.023-.09-.023 0-.067.023-.112-.067-.112v-.09c-.067 0-.045-.068-.045-.113 0 0 0 .022-.022.045-.067 0-.045.112-.045.157.09 0 .067.045.067.134.09 0 .113.113.113.203.045 0 .067 0 .09.022.022.023.022.068.022.113.023.023.045.045.045.067.023.023.045.045.045.09.044 0 .09 0 .112.023v.157h.067c.023.022.023.067.023.112.067 0 .224.247.224.337.045 0 .068 0 .09.022.023.068.045.135.068.225.067 0 .067.023.067.09.022.023.044.045.044.067h.045c0 .113-.202-.067-.224-.112 0-.023-.023-.045-.045-.067a1.087 1.087 0 0 0-.067-.158.322.322 0 0 0-.157-.045v-.09h-.113c0-.224 0-.224-.224-.224v.225c.134 0 .224-.023.224.134.023.023.045.045.045.068-.135-.023-.27-.023-.404-.023v-.113c-.068 0-.045-.067-.045-.112.067 0 .045-.045.045-.112 0-.023-.023-.045-.045-.068 0-.044-.023-.067-.045-.09 0 .023 0 .045-.022.09h-.157c-.023-.022-.045-.044-.068-.044 0-.023-.022-.045-.044-.068h.067c0-.134.224.045.224-.112.045 0 .09 0 .113.022v-.134c.09 0-.023-.112-.023-.157h-.112v-.067a.17.17 0 0 0-.113-.045c0 .067-.022.135-.044.224-.068 0-.157.023-.247.045a.175.175 0 0 0-.045-.112c-.023-.045-.045-.09-.067-.113a.396.396 0 0 0-.113-.157c0-.023-.022-.045-.044-.067a1.087 1.087 0 0 0-.068-.157h-.09c0-.045 0-.09-.022-.113-.067 0-.045-.09-.045-.134.067 0 .045-.045.045-.113 0-.023-.023-.045-.045-.067-.022 0-.067-.09-.067 0h-.157v.18s.09.022 0 .022c.044.022.09.067.112.113v.27h.068l.044-.045c.045 0 .09.022.113.044v.068c.09 0 .09.224 0 .224 0 .067-.068.045-.113.045v-.068l-.134-.202c0-.023-.023-.045-.045-.067-.023-.045-.045-.09-.067-.113a.491.491 0 0 0-.113-.18h-.157c.023 0 .045 0 .045.023a.617.617 0 0 1 .022.202c.045 0 .09 0 .113.023v.113h.09v.09c.18 0 .202.202.202.359.023 0 .135.067.045.067 0 .045-.023.09-.045.157h-.067c0-.044 0-.09-.023-.112h-.09v.067c.068 0 .113.09.113.157.022.023.045.045.045.067h-.068c.045.09.068.18.09.292h.09c.023 0 .045.023.067.045v.112c.045.023.09.045.113.067v.112c.09 0 0 .046-.045.046-.023-.023-.045-.046-.067-.046v.09h-.067c.022-.066.022-.112.022-.156.113 0-.022-.113-.022-.157a.592.592 0 0 0-.113-.135c-.023 0-.067 0-.112.023v.09c.044 0 .09 0 .112.022v.09c.023.067.023.134.023.224.044 0 .09 0 .112.023v.157c.023.023.045.045.045.067.044.023.09.045.112.068v.089c.045 0 .068 0 .068.068h.09a.175.175 0 0 0-.045-.113h.067v.068c.045.022.067.067.09.112h-.09v.09c.067 0 .045.067.045.134l-.068-.134a.4.4 0 0 0-.112-.157c0-.023-.023-.045-.045-.068a.172.172 0 0 0-.112-.044c-.023-.023-.045-.045-.067-.045v-.067h-.045c0-.157-.067.067-.067.112 0 .023-.023.045-.045.067-.023-.022-.067-.022-.112-.022 0-.045 0-.067-.023-.09 0-.022-.023-.044-.045-.067h-.067v.067c-.023 0-.067.023-.112.045v-.067c-.068 0-.045-.113-.045-.158h.067c0-.09 0-.157-.022-.224-.023-.023-.045-.023-.09-.023-.068-.134 0-.09-.18-.09v.113c.09 0 .112.135.112.202-.067 0-.044.225-.044.292.067 0 .112-.023.112.067.067 0 .113.09.113.157.044 0 .067 0 .09.023l.067.202c.022.023.044.045.044.068a.168.168 0 0 0-.112-.045v.067c-.023-.022-.045-.022-.09-.022 0-.045 0-.09-.022-.113h-.113c.023.067.09.225.18.225v.067c.044.022.09.045.112.067v.09c.045 0 .068 0 .068.067.067 0 .112.09.112.157.067 0 .067.045.067.113.023.022.045.045.045.09.09 0 .112.09.112.157.068.022.113.045.158.067.022.067.022.135.022.202.045 0 .067 0 .09.023.023 0 .045.023.067.045v.067c.09 0 .068.112.068.18-.023-.023-.045-.023-.068-.023a1.087 1.087 0 0 0-.067-.157c-.023-.023-.045-.023-.09-.023 0-.044 0-.067-.022-.09 0-.022-.023-.044-.045-.067-.067 0-.045-.067-.067-.112-.113 0-.045-.18-.158-.18 0-.09-.134-.112-.134-.18a.92.92 0 0 0-.113-.202c-.022-.023-.044-.023-.09-.023 0-.044 0-.067-.022-.09-.023-.022-.045-.022-.09-.022 0-.045 0-.09-.022-.113-.068 0-.068-.112-.158-.112 0-.067-.09 0-.157 0 0-.067 0-.135-.022-.18-.113 0 .044-.112-.157-.112 0 .09 0 .18-.023.291-.067 0-.045.068-.045.113.09 0 .068.112.068.18.09 0 .112.09.112.18.023.022.045.044.045.09.044 0 .09 0 .112.022.023.09.023.18.023.27h.09c.022-.023.044-.046.067-.046v-.067c.067 0 .067-.09.067-.157.067 0 .045.045.045.113.134 0 .044.202.044.27-.022 0-.044 0-.09.022 0 .113.292.09.405.09v.067c.067 0 0 .113-.023.157l-.067.203h.067c.067.134.067.157.292.157v-.113h.067v.157c.045 0 .09 0 .112.023v.09c.023 0 .045 0 .045.023h-.112c-.023 0-.045.022-.068.044 0-.067-.044-.067-.112-.067v-.09c-.023.023-.045.067-.09.113.067 0 .045.044.045.112.09 0 .067.09.067.157.023.023.045.045.045.067.067.023.112.045.157.068.022.022.022.044.022.09.045 0 .09 0 .113.022v.09c.044 0 .067 0 .09.023l.067.202h-.067a.175.175 0 0 0-.045-.113h-.067v-.09c-.023-.022-.045-.022-.09-.022 0-.067-.045-.045-.113-.045 0-.067-.202-.134-.247-.224a.592.592 0 0 0-.112-.135.316.316 0 0 0-.067-.09c-.023-.022-.045-.022-.09-.022 0-.09 0-.113-.113-.113-.022-.067-.022-.157-.18-.09 0 .067-.022.135-.044.225.023.023.045.045.045.09v.09c.044-.023.09-.023.112-.023v-.112a.37.37 0 0 1 .113-.045c.022.045.044.112.067.18.09 0 0 .067 0 .112h-.067c0 .045-.023.09-.045.157h-.067c0-.09-.157-.067-.225-.067v.067c-.067 0-.044.203-.044.27.044 0 .067 0 .09.023.022.044.022.09.022.157.067 0 .36-.023.202-.18h.068v.067c.112 0 .044.113.044.18-.044.023-.09.045-.157.067v.113h-.157v.09h-.134v-.203c-.023-.022-.045-.022-.09-.022 0-.045 0-.068-.023-.09h-.112v-.068c-.023-.067-.045-.134-.068-.18h-.09c-.022 0-.044.023-.067.045v.135c.067.023.113.045.157.067.023.045.023.09.023.157.045 0 .09.023.112.045v.067c.068 0 .068.045.068.113.067 0 .112.09.112.18h.09c.023.022.023.044.023.09.022.022.044.044.044.067.045 0 .068 0 .068.067h-.068c0-.113-.134-.135-.224-.135a.273.273 0 0 0-.113-.112.37.37 0 0 0 .045-.113l-.067-.202c-.045-.023-.09-.023-.157-.023-.023-.022-.045-.044-.068-.044 0-.068-.044-.045-.112-.045.023.113.045.202-.09.202v.068h-.247c0-.135-.067.067-.067.112 0 .023-.023.045-.045.067h-.157c0 .045 0 .09-.023.158 0 .022-.022.044-.044.067.09 0 .067.09.067.157.067 0 .113 0 .157.023v.09h.067v.067c.068 0 .068.044.068.112.022.023.044.045.044.067l-.067-.067c-.023 0-.067-.09-.067 0 0 .023-.023.045-.045.067.067 0 .067.022.067.09.09 0 .068.113.068.18.067 0 .044.067.044.135.023.022.045.044.045.09h-.09c0-.045 0-.09-.022-.113-.023-.045-.045-.09-.068-.113a.66.66 0 0 0-.224-.044c.022-.113.022-.203.022-.292h-.067c0-.157-.337-.044-.45-.044v.27c.023.022.046.044.046.066h.134c.023.045.045.09.045.158.022 0 .044 0 .044.022-.022-.022-.044-.022-.09-.022 0-.045 0-.068-.022-.09-.023-.023-.067-.023-.113-.023.023.067.045.157.068.247-.023-.023-.068-.023-.113-.023-.022-.022-.044-.044-.067-.044v.112c.015.018.037.04.037.062zm-.944.09c0-.022 0-.044-.022-.044-.113 0-.067-.247-.113-.337-.067 0-.044-.045.023-.045a.17.17 0 0 1 .045.112c.112 0 .067.247.067.314zm.562 0a.316.316 0 0 0-.068-.09h.068v.09zm-1.325.023h-.157c.022-.023.044-.023.044-.023v-.044c-.09 0 .068-.18.068.044.022 0 .045 0 .045.023zm1.616.045l-.067-.068a.316.316 0 0 0-.067-.09h.067c0 .068.067.023.067.158zm.674.045h-.067v-.113c-.067 0-.045-.112-.045-.157-.09 0-.022-.044.045-.044.022.044.022.09.022.157.068 0 .045.09.045.157zm-1.774.09a.354.354 0 0 0-.157-.09h.113v.066c.022 0 .044 0 .044.024zm-.629.044a.58.58 0 0 0-.112-.134h.067v.066c.023.024.045.046.045.068zm.337.046h-.112a.178.178 0 0 0-.045-.114c-.067 0-.045-.066-.067-.111h.067c0 .089.067 0 .067.111.023-.022.045-.044.045-.066.157 0 .135.09.224.09-.022 0-.044.022-.09.044 0-.09-.044-.068-.134-.068v.068c.023 0 .045.023.045.046zm.741.224s-.18-.09 0-.09v.09zm1.73 0h-.067c0-.067-.024-.135-.046-.202.068 0 .068.022.068.09 0 0 .09.022 0 .022.022.023.044.045.044.09zm-2.583.18c-.068 0-.09-.157-.09-.225h.09c.022.023.022.068.022.113h-.067a.167.167 0 0 1 .045.112zm.651.044c0-.022 0-.044-.022-.044h-.09c0-.068 0-.113-.023-.157.023 0 .023.022.023.044.067 0 .045-.044.045-.112h.067v.27z"></path></svg></g><path fill="#000000" fill-rule="nonzero" d="M5.23 19.82L5.23 19.82Q3.17 19.82 2.03 18.96Q0.89 18.10 0.44 16.63Q0 15.17 0 13.37L0 13.37L0 6.50Q0 4.54 0.44 3.07Q0.89 1.61 2.03 0.80Q3.17 0 5.23 0L5.23 0Q7.06 0 8.12 0.67Q9.19 1.34 9.66 2.59Q10.13 3.84 10.13 5.59L10.13 5.59L10.13 7.13L7.56 7.13L7.56 5.76Q7.56 4.68 7.45 3.85Q7.34 3.02 6.86 2.57Q6.38 2.11 5.26 2.11L5.26 2.11Q4.10 2.11 3.58 2.60Q3.05 3.10 2.89 4.00Q2.74 4.90 2.74 6.10L2.74 6.10L2.74 13.80Q2.74 15.26 2.98 16.12Q3.22 16.97 3.77 17.33Q4.32 17.69 5.26 17.69L5.26 17.69Q6.36 17.69 6.84 17.20Q7.32 16.70 7.44 15.84Q7.56 14.98 7.56 13.82L7.56 13.82L7.56 12.38L10.13 12.38L10.13 13.82Q10.13 15.60 9.70 16.96Q9.26 18.31 8.21 19.07Q7.15 19.82 5.23 19.82ZM15.14 19.61L12.58 19.61L12.58 0.17L15.14 0.17L15.14 7.18Q15.84 6.50 16.70 6.02Q17.57 5.54 18.62 5.54L18.62 5.54Q19.44 5.54 19.88 5.98Q20.33 6.41 20.51 7.06Q20.69 7.70 20.69 8.38L20.69 8.38L20.69 19.61L18.12 19.61L18.12 9.12Q18.12 8.38 17.90 7.97Q17.69 7.56 17.02 7.56L17.02 7.56Q16.56 7.56 16.07 7.82Q15.58 8.09 15.14 8.47L15.14 8.47L15.14 19.61ZM27.02 19.80L27.02 19.80Q25.39 19.80 24.50 19.16Q23.62 18.53 23.27 17.29Q22.92 16.06 22.92 14.26L22.92 14.26L22.92 11.09Q22.92 9.24 23.28 8.02Q23.64 6.79 24.54 6.17Q25.44 5.54 27.02 5.54L27.02 5.54Q28.78 5.54 29.60 6.26Q30.43 6.98 30.70 8.34Q30.96 9.70 30.96 11.59L30.96 11.59L30.96 12.72L25.49 12.72L25.49 15.50Q25.49 16.34 25.64 16.87Q25.80 17.40 26.15 17.65Q26.50 17.90 27.05 17.90L27.05 17.90Q27.62 17.90 27.92 17.63Q28.22 17.35 28.33 16.84Q28.44 16.32 28.44 15.62L28.44 15.62L28.44 14.78L30.94 14.78L30.94 15.31Q30.94 17.40 30.05 18.60Q29.16 19.80 27.02 19.80ZM25.49 10.58L25.49 11.33L28.44 11.33L28.44 10.08Q28.44 9.22 28.34 8.63Q28.25 8.04 27.95 7.74Q27.65 7.44 27 7.44L27 7.44Q26.38 7.44 26.05 7.73Q25.73 8.02 25.61 8.70Q25.49 9.38 25.49 10.58L25.49 10.58ZM35.90 19.58L33.34 19.58L33.34 0.14L35.90 0.14L35.90 11.74L39.65 5.74L42.34 5.74L39.07 11.16L42.24 19.61L39.67 19.61L37.08 12.50L35.90 14.28L35.90 19.58ZM47.40 19.80L47.40 19.80Q45.86 19.80 44.98 19.18Q44.09 18.55 43.72 17.40Q43.34 16.25 43.34 14.69L43.34 14.69L43.34 10.66Q43.34 9.10 43.72 7.94Q44.09 6.79 44.98 6.17Q45.86 5.54 47.40 5.54L47.40 5.54Q48.94 5.54 49.81 6.17Q50.69 6.79 51.06 7.94Q51.43 9.10 51.43 10.66L51.43 10.66L51.43 14.69Q51.43 16.25 51.06 17.40Q50.69 18.55 49.81 19.18Q48.94 19.80 47.40 19.80ZM47.40 17.90L47.40 17.90Q48.14 17.90 48.44 17.47Q48.74 17.04 48.80 16.33Q48.86 15.62 48.86 14.86L48.86 14.86L48.86 10.51Q48.86 9.72 48.80 9.02Q48.74 8.33 48.44 7.88Q48.14 7.44 47.40 7.44L47.40 7.44Q46.66 7.44 46.34 7.88Q46.03 8.33 45.97 9.02Q45.91 9.72 45.91 10.51L45.91 10.51L45.91 14.86Q45.91 15.62 45.97 16.33Q46.03 17.04 46.34 17.47Q46.66 17.90 47.40 17.90Z" transform="translate(30.616, 8.088)"></path></svg>